<?xml version="1.0" encoding="UTF-8"?>
<svg id="Layer_1" data-name="Layer 1" xmlns="http://www.w3.org/2000/svg" viewBox="0 0 605.56 669.44">
  <path d="M605.56,82.32v24.48c0,4.76-3.86,8.61-8.61,8.61H8.61c-4.76,0-8.61-3.86-8.61-8.61v-24.48c0-20.55,16.66-37.21,37.21-37.21h140.85l5.82-18.64c4.92-15.75,19.49-26.47,35.99-26.47h165.83c16.49,0,31.07,10.72,35.99,26.47l5.82,18.64h140.85c20.55,0,37.21,16.66,37.21,37.21Z"/>
  <path d="M29.03,140.14l41.74,490.13c1.89,22.15,20.42,39.17,42.65,39.17h378.72c22.23,0,40.76-17.02,42.65-39.17l41.74-490.13H29.03ZM193.29,587.71l-.72.06c-9.03.71-16.93-6.04-17.64-15.07l-26.16-333.2c-.71-9.03,6.04-16.93,15.07-17.63l.72-.06c9.03-.71,16.93,6.04,17.63,15.07l26.16,333.2c.71,9.03-6.04,16.93-15.06,17.63ZM319.54,571.9c0,9.06-7.34,16.4-16.4,16.4h-.72c-9.06,0-16.4-7.34-16.4-16.4V237.67c0-9.06,7.34-16.4,16.4-16.4h.72c9.06,0,16.4,7.34,16.4,16.4v334.23ZM456.07,239.5l-26.16,333.2c-.71,9.03-8.61,15.78-17.64,15.07l-.72-.06c-9.03-.71-15.78-8.6-15.06-17.63l26.16-333.2c.71-9.03,8.6-15.78,17.63-15.07l.72.06c9.03.71,15.78,8.6,15.07,17.63Z"/>
</svg>