<?xml version="1.0" encoding="UTF-8"?>
<svg id="Layer_1" data-name="Layer 1" xmlns="http://www.w3.org/2000/svg" viewBox="0 0 77.07 139.66">
  <path d="M48.43,57.27c5.86-7.13,8.99-16.81,6.07-25.53-1.53-4.57-4.77-8.15-9.25-10.02-6.08-2.54-13.12-1.6-18.28,2.53-3.92,3.14-6.25,7.7-6.56,12.71l-.41,6.69-19.8.02C-.83,30.88,2.24,20.7,10.86,11.29,18.88,2.82,29.44-.42,41.01.04c9.06.36,17.3,3.97,23.97,10.02,5.12,4.65,8.8,10.44,10.58,17.18,1.39,5.27,1.8,10.51,1.33,15.98-1.15,13.19-8.22,23.71-17.9,32.31-2.2,2.08-4.37,3.92-6.35,6.2-4.52,5.21-6.54,11.83-6.08,18.78h-21.48s.23-4.44.23-4.44c.65-9.99,4.71-19.22,11.67-26.44,3.93-4.08,7.8-7.9,11.47-12.36Z"/>
  <circle cx="38.26" cy="125.93" r="13.73"/>
</svg>