<?xml version="1.0" encoding="UTF-8"?>
<svg id="Layer_1" data-name="Layer 1" xmlns="http://www.w3.org/2000/svg" viewBox="0 0 512 512">
  <defs>
    <style>
      .cls-1 {
        fill: #d5d5d5;
      }

      .cls-2 {
        fill: #ab1519;
      }

      .cls-3 {
        fill: #2e383d;
      }
    </style>
  </defs>
  <g>
    <path class="cls-3" d="M388.35,335.42l106.37-.09,8.61.3c4.45.15,8.55,3.59,8.54,8.35l-.03,53.82c0,4.68-4,8.28-8.67,8.28h-114.8c-4.99,0-8.82-3.84-8.82-8.68l-.03-53c0-5.29,4.22-8.62,8.82-8.99Z"/>
    <g>
      <path class="cls-2" d="M494.73,335.33l-106.37.09c.23-16.66-8.67-29.89-22.28-39.65-21.08-15.1-34.89-37.83-42.85-62.29-4.4-13.51-14.52-21.6-29.18-21.68l-20.51-.12-.06-21.91c-.02-7.68-5.96-13.02-13.52-13.31-7.15-.27-12.82-5.84-12.86-12.96l-.24-39.72,246.88-.29c8.21,0,14.37,4.93,16.8,10.84,3.4,8.24.53,15.51-5.28,21.24-16.63,16.38-10.72,45.89-5.17,66.33,6.85,25.22,11.41,50.23,11.65,76.51.16,17.31-17.68,17.13-17.02,36.91ZM458.75,211.62l.23-31.18c.06-7.39-5.41-12.82-12.65-12.76l-22.69.17-31.22-.11c-8.02-.03-13.97,6.98-12.7,15.04l12.68,80.45c.97,6.15,6.42,10.37,12.45,10.38l41.5.06c7.09.01,12.63-5.32,12.62-12.46l-.22-49.59Z"/>
      <path class="cls-3" d="M458.75,211.62l-25.96.18c-4.94.03-9.04-3.61-9.05-8.6l-.1-35.34,22.69-.17c7.25-.06,12.71,5.37,12.65,12.76l-.23,31.18Z"/>
    </g>
  </g>
  <g>
    <path class="cls-3" d="M246.86,123.79l.24,39.72c.04,7.12,5.71,12.69,12.86,12.96,7.56.28,13.5,5.62,13.52,13.31l.06,21.91c-17.03-.1-24.56,2.27-39.94-8.84-7.89-5.7-16.45-8.78-26.35-8.75l-39.5.13c-.7,10.38-8.68,17.76-18.12,17.57-10.41-.21-16.92-9-17.35-19.52l-.53-12.88c-.64-15.48-1.25-31.42-.06-46.77l.71-9.22c.75-9.73,7.91-17.39,17.27-17.49s17.33,6.99,18.07,17.74l79.15.14Z"/>
    <path class="cls-1" d="M.11,178.43c-1.81-25.39,19.13-46.17,44.62-46.09l86.93.27c-1.19,15.34-.58,31.29.06,46.77L.11,178.43Z"/>
  </g>
</svg>