<?xml version="1.0" encoding="UTF-8"?>
<svg id="Layer_1" data-name="Layer 1" xmlns="http://www.w3.org/2000/svg" viewBox="0 0 512 512">
  <defs>
    <style>
      .cls-1 {
        fill: #be262d;
      }

      .cls-2 {
        fill: #ab1519;
      }

      .cls-3 {
        fill: #2e383d;
      }
    </style>
  </defs>
  <path class="cls-3" d="M409.64,362.94c-.68-1.94-1.99-3.1-2.36-4.8,5.1-1.52,3.89-11.49,5.63-18.73.69-2.86.68-5.56,1.02-8.45l.99-8.31c.29-2.48.41-4.77.59-7.27.49-6.81,1.13-13.31,2.1-20.07l2.1-14.51,1.68-15.85.69-7.16.86-8.46,2.03-18.58c.34-3.08.84-6.13,0-9.12-.35-1.25-.63-3.13-1.33-4.05-.9-1.18-.59-2.07-1.08-3.24l-13.88-33.22c-.79-1.89-1.87-3.33-2.44-5.33-.74-2.59-1.81-5.05-3.35-7.4l.24-.93c-1.38-4.58-4.47-8.19-5.62-11.8-.7-2.22-1.16-4.53-2.69-6.48-2.07-2.65-3.34-8.26-5.76-11.78l-7.74-11.29c2.4-.13,4.82-.16,7.4.15,6.51.78,14.27-.74,20.15,1.18.52.69.78,1.48,1.28,2.37l21.07,2.06,17.61,2.29c10.49,1.36,20.54,3.44,30.71,6.54,3.38,1.03,6.44,2.55,9.62,4.01,14.54,6.67,18.59,22.94,20.53,37.28l.78,5.77c.26,1.92,1.18,18.04,1.09,18.98-.21,2.34.41,4.26.4,6.49l-.15,39.91c-.01,4-.52,9.79-.84,13.94l-1.85,24.33-1.43,11.57c-1.55,12.53-2.14,23.7-10.28,34.12-1.88,2.4-4.1,4.57-6.76,5.95-1.06.55-1.85,1.37-2.92,1.8-4.45,1.79-9.12,2.22-13.82,2.76l-5.08,6.58c-1.21.63-2.52.36-3.85.47-5.31.46-10.36.99-15.68,1.03l-14.57,21.34c-2.09,3.06-4.45,5.7-6.8,8.49-1.31,1.56-4.83-1.77-5.57-1.27l-12.76-21.34ZM443.45,164.65c.5-.91.18-1.64-.13-2.33l-5.55-12.31c-.55-1.22-1.23-2.1-2.75-2.1h-9.24c-.55.01-1.1.36-1.2.66s-.05.76.13,1.15l6.24,13.36c.45.97,1.35,1.52,2.41,1.53l10.09.05ZM453.18,187.19l18.85-6.7c1.21-.43,1.28-2.26,1.73-3.26l1.55-7.6c.11-.56-.06-1.34-.36-1.58-.27-.22-.93-.59-1.5-.51-5.14.71-9.97,2.14-15.09,3.14-3.83.75-7.67,1.06-11.16,2.28-1.44,1.36-1.81,2.65-.81,4.14,2.27,3.39,4.19,6.73,6.78,10.09ZM442.94,262.6c-.36.56-1.38.25-1.51.54-1.53,3.53,2.17,3.59.67,8.42-.26.44-1.33.24-1.52.52-1.19,1.76-.13,3.1,1.01,4.4,1.55,1.76-2.57,6.05,2.02,12.41,1.67,2.32,3.53,4.01,6.25,5.03,5.05,1.9,9.85,3.1,15.27,4.56,5.08,1.37,11.41-2.84,11.27-8.83l-.76-32.81c-.23-9.83.13-19.15.8-28.91l1.87-27.23c.34-4.89-1.22-9.28-5.53-11.99-2.59-1.62-5.64-3.55-9.25-2.23l-18.42,6.74c-3.59,1.31-4.7,5.04-4,8.4.18.88-1.86.93-2.07,1.44-.57,1.38,1.28,1.99,2.25,2.82,1.04.89,1.42,3.19,1.07,4.41-1.2,4.16,2.42,2.71,2.31,8.62-.8.58-1.74.45-2.55,1.18,2.85,1.79,4.53,4.45,3.59,7.62-.79.48-1.84.23-2.57.93,1.73,2.07,3.48,5.01,1.97,7.52-.52.88-2.34,1.32-1.41,3.28.73,1.54,1.64,3.78.49,5.54-.32.49-1.54.33-1.41,1.02.12.65-.35,1.54.19,2.21,1.17,1.45,2.08,4.41.24,5.52-3.55,2.14,1.82,5.61-.27,8.88Z"/>
  <path class="cls-2" d="M453.18,187.19c-2.59-3.36-4.51-6.7-6.78-10.09-.99-1.49-.63-2.78.81-4.14,3.49-1.22,7.33-1.54,11.16-2.28,5.12-1,9.95-2.43,15.09-3.14.57-.08,1.23.29,1.5.51.29.24.47,1.02.36,1.58l-1.55,7.6c-.44,1-.52,2.83-1.73,3.26l-18.85,6.7Z"/>
  <path class="cls-2" d="M443.45,164.65l-10.09-.05c-1.06,0-1.96-.56-2.41-1.53l-6.24-13.36c-.18-.39-.24-.84-.13-1.15s.65-.65,1.2-.65h9.24c1.52-.01,2.2.87,2.75,2.09l5.55,12.31c.31.69.63,1.41.13,2.33Z"/>
  <g>
    <path class="cls-2" d="M424.99,221.64c-.35-1.25-.63-3.13-1.33-4.05-.9-1.18-.59-2.07-1.08-3.24l-13.88-33.22c-.79-1.89-1.87-3.33-2.44-5.33-.74-2.59-1.81-5.05-3.35-7.4l.24-.93c-1.38-4.58-4.47-8.19-5.62-11.8-.7-2.22-1.16-4.53-2.69-6.48-2.07-2.65-3.34-8.26-5.76-11.78l-7.74-11.29c-2.03.11-4.22,1.01-6.41.6-1.55-.29-2.88-1.09-4.56-.47-1.85.69-3.8.46-5.82.73l-37.54,5.11-10.89,1.55c-7.15,1.02-14.55,4.67-21.11,7.91-22.09,10.89-43.64,22.4-65.2,34.3-.32,1.99-1.57,2.66-3.06,3.49l-66.14,15.57c.02.15.02.3,0,.45v-.45c-3.17.35-6.35.33-9.74.41l-11.12.28c-1.37.03-2.39-.38-3.31.46-1.01.92-1.02,2.17-.99,3.46.08,3.86-.11,7.68-.13,11.77l-.09,31.26c0,1.47-.04,2.47-.05,4.12l-.06,15.21c.39.95,1.23,3.36,2.53,3.39l23.81.48c2.13.06,61.95,7.35,64.25,7.67,6.38.91,12.34,2.31,18.71,3.54l39.29,7.58c4.74.91,9.66,1.41,12.19,5.15l6.78,10.03-1.95,8.97c-.36,1.64.31,3.25.97,4.72.37.82-.73,1.32-.66,2.08.63,6.28,3.41,4.15,4.62,8.06.45,1.45.66,2.3.14,3.85-.41,1.21,1.33,2.71,1.4,3.8.11,1.5,1.62,1.34,2.09,2.09,2.54,4.05,4.87,8.17,8.39,11.43,2.41,2.24,5.55,2.94,8.73,3.57,3.82.76,7.46,1.82,11.17,1.87-2.27-1.93-4.02-4.63-5.51-7.48.58-.71,1.84-.7,2.43-.44.92.4,4.53,6.83,4.05,8.07,1.15.61,3.05,1.01,4.2.82-1.7-1.42-4.57-4.95-5.09-7.52-.03-.91,1.84-.84,2.45-.64.8.27,1.41.89,1.73,1.96,1.05,3.46,2.92,4.62,1.75,6.26,1,.51,2.26.37,3.39.46-1.03-2.39-3.24-4.79-3.35-7.67.71-.79,3.43-.45,3.84.76.84,2.45,1.77,4.7,2.1,7.04.85.64,1.91.78,2.94.62-1.27-2.08-2.42-4.8-2.39-7.35.74-.74,3.02-.52,3.5.33.58,1.01-.05,2.38.62,3.33.87,1.22,1.21,2.48,1.32,3.79.73.9,1.83,1.07,2.91.87-.68-.99-1.75-6.87-.91-8.02.56-.76,3.1-.19,3.31.88-.02-.08,1.27,6.66,1,7.29.85.61,1.78.89,2.68.34-.86-2.37-.3-4.94-.39-7.62,1.01-.07,2.3-.34,2.97.29.05,2.58.44,5.05.77,7.37.55.97,1.75.74,2.72.6,0-2.75-.96-4.88-.25-7.66,1.04-.2,1.93.06,3.07.32.28,2.58.51,5.01.48,7.46.34.35.76.65,1.2.78.55.16,1.01-.07,1.22-.59-.49-2.31-.13-4.68-.06-7.25.96-.21,2.6-.47,3.26.18.36.67.72,7.25,0,7.32.69.93,2.05,1.2,2.94.43-.09-2.18-.08-4.87.08-7.19.45-.68,2.84-.66,3.18.11.08,1.43,1.04,7.65-.8,7.27,1.19.46,2.6,1.17,3.55.2.04-2.22-.26-4.68.37-7.03.22-.81,2.77-.72,3.06.08.82,2.26.07,4.49.02,6.7-.92-.12-1.31.17-1.81.28,1.96.14,2.73,1.56,4.44.41-.19-2.13-.16-4.76.7-6.92.31-.77,2.92-.34,3.02.53.26,2.2-.25,4.08-.44,5.94-.28,2.69,7.75,1.17,9.37,2.26,5.1-1.52,3.89-11.49,5.63-18.73.69-2.86.68-5.56,1.02-8.45l.99-8.31c.29-2.48.41-4.77.59-7.27.49-6.81,1.12-13.31,2.1-20.07l2.1-14.51,1.68-15.85.69-7.16.86-8.46,2.03-18.58c.34-3.08.84-6.13,0-9.12ZM333.95,348.44c-2.27,1.62-5.6-5.14-6.98-6.55.72-.45,2.12-.76,2.64-.06,1.57,2.1,2.8,4.2,4.34,6.6Z"/>
    <path class="cls-1" d="M384.99,355.7c-.12-.05-.23-.09-.34-.13.12.07.24.11.34.13Z"/>
    <path class="cls-1" d="M361.93,353.55c-.08-.06-.17-.12-.25-.18.13.24.2.28.25.18Z"/>
  </g>
  <g>
    <path class="cls-3" d="M361.68,353.36c-1.04.11-2.11-.16-3.14.03-.68-.99-1.75-6.87-.91-8.02.56-.76,3.1-.19,3.31.88-.02-.1,1.7,8.9.75,7.11Z"/>
    <path class="cls-3" d="M379.59,355.09c-1.06-.11-2.16.02-3.2-.25-.49-2.31-.13-4.68-.06-7.25.96-.21,2.6-.47,3.26.18.36.67.72,7.25,0,7.32Z"/>
    <path class="cls-3" d="M349.63,351.8c-.26.08-.6-.06-.85.03l-1.32-.12-.43-.03c-1.03-2.39-3.24-4.79-3.35-7.67.71-.79,3.43-.45,3.84.76.84,2.45,1.77,4.7,2.1,7.04Z"/>
    <path class="cls-3" d="M355.63,352.52h-.86c.02-.41-.43-.46-.43-.03-.58-.03-1.19-.16-1.77-.07-1.27-2.08-2.42-4.8-2.39-7.35.74-.74,3.02-.52,3.5.33.58,1.01-.05,2.38.62,3.33.87,1.22,1.21,2.48,1.32,3.79Z"/>
    <path class="cls-3" d="M390.19,355.93c-.52.11-1.12-.18-1.65-.03.04-2.22-.26-4.68.37-7.03.22-.81,2.77-.72,3.06.08.82,2.26.07,4.49.02,6.7-.92-.12-1.31.17-1.81.28Z"/>
    <path class="cls-3" d="M373.97,354.64c-.26,0-.53-.08-.79-.03-.36-.47-1.42-.51-1.78-.03-.21-.04-.51-.09-.73-.06,0-2.75-.96-4.88-.25-7.66,1.04-.2,1.93.06,3.07.32.28,2.58.51,5.01.48,7.46Z"/>
    <path class="cls-3" d="M384.65,355.57l-2.11-.06c-.09-2.18-.08-4.87.08-7.19.45-.68,2.84-.66,3.18.11.08,1.51,1.15,8.38-1.14,7.14Z"/>
    <path class="cls-3" d="M343.64,351.21c-.2-.06-.64-.09-.85-.05-1.7-1.42-4.57-4.95-5.09-7.52-.03-.91,1.84-.84,2.45-.64.8.27,1.41.89,1.73,1.96,1.05,3.46,2.92,4.62,1.75,6.26Z"/>
    <path class="cls-3" d="M397.91,355.88l-.4.04c-.46.04-.92.13-1.29.41-.53-.11-1.07-.13-1.6,0-.19-2.13-.16-4.76.7-6.92.31-.77,2.92-.34,3.02.53.26,2.2-.25,4.08-.44,5.94Z"/>
    <path class="cls-3" d="M367.95,353.92l-3.35-.04c-.86-2.37-.3-4.94-.39-7.62,1.01-.07,2.3-.34,2.97.29.05,2.58.44,5.05.77,7.37Z"/>
    <path class="cls-3" d="M338.6,350.34c-.25-.13-.69-.15-.97-.15-2.27-1.93-4.02-4.63-5.51-7.48.58-.71,1.84-.7,2.43-.44.92.4,4.53,6.83,4.05,8.07Z"/>
    <path class="cls-3" d="M333.95,348.44c-2.27,1.62-5.6-5.14-6.98-6.55.72-.45,2.12-.76,2.64-.06,1.57,2.1,2.8,4.2,4.34,6.6Z"/>
  </g>
  <circle class="cls-3" cx="280.67" cy="228.97" r="27.17"/>
  <path class="cls-2" d="M264.91,231.11c-2.74.44-5.21.56-8,.39-.65-1.59-.5-3.28-.14-5.3,2.71-.1,5.31-.05,8.07.27.28,1.57.19,2.82.08,4.64Z"/>
  <path class="cls-3" d="M195.1,153.75h-12.81c-12.83,0-23.33,10.5-23.33,23.33v111.35c0,9.68,5.98,18.03,14.43,21.55l-7.06,8.49.24,32.32c.01,1.67,1.41,2.61,2.83,2.66l15.41.47c3.29.1,24.27-.97,25.33-2.18.66-.76.99-1.73.92-2.93-.63-10.47-1.29-20.73-1.33-31.27l-6.53-7.24c8.87-3.31,15.23-11.88,15.23-21.87v-111.35c0-12.83-10.5-23.33-23.33-23.33Z"/>
  <path class="cls-3" d="M135.48,199.54c.08,3.86-.11,7.68-.13,11.77l-.09,31.26c0,1.47-.04,2.47-.05,4.12l-.06,15.21c-6.15.78-8.89-3.87-12.14-4.48-4.81-.9-9.78-.18-14.56-.59-.29,1.29.32,2.48-.34,3.36-1.43,1.9-3.65-1.26-6.98.25-2.39,1.09-3.65-1.65-6.75.04-1.51.82-2.76-.66-4.19-.48-2.23.28-5.01,1.27-6.83-.7-1.38-1.49-.11-6.43-1.92-6.63-.59-.06-1.89-.22-2.03.58-.15.88-.3,1.62-.86,2.03-.51.38-1.22.57-1.94.47-2.35-.3-4.52.16-6.92.13l-30.38-.4c-.31-1.41-1.02-1.58-1.86-1.75-.77-.16-1.14,1.03-1.8,1.14-3.17.54-6.44-.9-9.62-1.01l-3.36-.12c-.27-.01-20.11-5.26-21.3-9.14C-.04,240.04,0,235.52,0,230.77c0-3.25-.2-14.56,2.58-16.22,2.09-1.25,4.43-1.73,6.64-2.7,4.28-1.89,8.55-3.05,13.01-4.09,1-.23,1.53-.77,2.73-.71,3.39.16,6.89-1.49,10.36-1.08.7.08,1.33,1.18,1.9,1.31,1.05.24,1.49-1.67,2.13-1.67l39.04-.37c.7,1.43.82,3.06,2.2,3.03,2.84-.04.84-4.69,2.68-7,1.73-2.18,4.81-.57,6.84-.59,1.8-.02,3.29-1.45,5.1-.04.87.68,2.35,0,3.19-.43,1.5-.79,2.82.5,4.15.5,1.85,0,3.59-1.23,5.62-.43.55,1.28.11,2.73.5,4.45,4.57-.43,9.03.12,13.55-.56,3.28-.49,7.06-6.06,13.27-4.64Z"/>
</svg>