<?xml version="1.0" encoding="UTF-8"?>
<svg id="Layer_1" data-name="Layer 1" xmlns="http://www.w3.org/2000/svg" xmlns:xlink="http://www.w3.org/1999/xlink" viewBox="0 0 359.91 359.84">
  <defs>
    <style>
      .cls-1 {
        fill: #43525b;
      }

      .cls-2 {
        opacity: .05;
      }

      .cls-3 {
        fill: #283135;
      }

      .cls-4 {
        fill: #e2e3e5;
      }

      .cls-5 {
        fill: none;
      }

      .cls-6 {
        fill: #ab1519;
      }

      .cls-7 {
        fill: #2e383d;
      }

      .cls-8 {
        fill: #687279;
      }

      .cls-9 {
        fill: #2f393e;
      }

      .cls-10 {
        opacity: .1;
      }

      .cls-11 {
        clip-path: url(#clippath);
      }
    </style>
    <clipPath id="clippath">
      <path class="cls-5" d="M188.69,230.48c.08-.19,0-.49.12-.65l-37.18-37.13c-3.36-1.97-6.49-5.09-8.44-8.46l-26.64-26.22c-.98-.96-1.63-1.89-1.6-3.02-1.31.93-3.4,2.67-4.45,3.84l-53.08,59.88c-2.87,3.24-5.16,6-7.54,9.09-1.48,1.93-4.13,3.73-6.04,5.86l-24.38,27.25c-7.74,8.65-9.4,20.61-2.49,29.64,2.17,2.84,3.96,6.31,7.4,8.12,1.07.77,1.77,3.11,3.05,3.74l30,29.99,3.7,3.05c1.92,3.33,5.22,5.21,8.16,7.46,9.71,7.44,21.95,4.48,30.78-3.6l31.55-28.84,72.27-64.85-15.19-15.18Z"/>
    </clipPath>
  </defs>
  <g>
    <g>
      <g>
        <circle class="cls-7" cx="257.92" cy="126.05" r="101.99"/>
        <circle class="cls-4" cx="257.92" cy="126.05" r="41.84"/>
      </g>
      <g>
        <path class="cls-3" d="M258.23,0v251.72c-69.64,0-126.08-56.35-126.08-125.86S188.6,0,258.23,0Z"/>
        <path class="cls-3" d="M258.23,24.09v203.98c-56.33,0-101.99-45.66-101.99-101.99s45.66-101.99,101.99-101.99Z"/>
        <path class="cls-2" d="M258.23,24.09v203.98c-56.33,0-101.99-45.66-101.99-101.99s45.66-101.99,101.99-101.99Z"/>
      </g>
      <path class="cls-7" d="M258.31,122.03c-1.31-2.65-12.09-16.37-17.43-17.88-.73-.21-1.37-.64-1.95-1.14-2.81-2.42-6.88-2.84-10.18-4.23-13.59-5.71-30.41-2.71-42.94,5.95l-29.56,20.43-23.08,16.93-18.23,12.92c-.04,1.13.62,2.05,1.6,3.02l26.64,26.22c1.95,3.37,5.09,6.49,8.44,8.46l37.18,37.13c-.12.15-.04.46-.12.65l15.19,15.18c1.57-1.41,3.35-3.69,4.63-5.23,3.15-7.23,9.19-12.91,13.57-19.38,11.39-16.79,23.03-33.66,35.48-49.58-.01-1.89,1.21-2.44,1.77-3.83,6.03-15.01,6.22-30.95-1.01-45.61Z"/>
      <g>
        <path class="cls-1" d="M52.05,337.66l-21.68,22.18L0,329.46c7.77-7.35,14.44-15,22.12-21.55l29.93,29.75Z"/>
        <path class="cls-9" d="M94.68,273.35l-47.31,47.58c1.76,2.99,9.8,8.87,10.04,11.49-1.27,2.23-3.71,3.54-5.36,5.23l-29.93-29.75c1.83-1.56,2.89-4.4,5.29-5.48,4.69,2.3,6.25,5.86,11.31,10.04l47.79-47.41c2.46,2.7,5.54,5.78,8.17,8.28Z"/>
        <g class="cls-11">
          <path class="cls-6" d="M188.69,230.48c.08-.19,0-.49.12-.65l-37.18-37.13c-3.36-1.97-6.49-5.09-8.44-8.46l-26.64-26.22c-.98-.96-1.63-1.89-1.6-3.02-1.31.93-3.4,2.67-4.45,3.84l-53.08,59.88c-2.87,3.24-5.16,6-7.54,9.09-1.48,1.93-4.13,3.73-6.04,5.86l-24.38,27.25c-7.74,8.65-9.4,20.61-2.49,29.64,2.17,2.84,3.96,6.31,7.4,8.12,1.07.77,1.77,3.11,3.05,3.74l30,29.99,3.7,3.05c1.92,3.33,5.22,5.21,8.16,7.46,9.71,7.44,21.95,4.48,30.78-3.6l31.55-28.84,72.27-64.85-15.19-15.18Z"/>
          <path class="cls-10" d="M184.9,223.15l25.78,26.55-122.67,113.45c-3.57-5.99-18.66-20.57-24.38-25.69.28-.29.06-1,.06-1.35l116.61-107.21c2.15-1.98,2.38-4.82,4.6-5.74Z"/>
        </g>
      </g>
    </g>
    <g>
      <polygon class="cls-8" points="90.87 126.5 12.26 47.79 36.34 23.72 114.99 102.37 90.87 126.5"/>
      <polygon class="cls-1" points="90.87 126.5 78.69 138.68 .03 60.02 12.26 47.79 90.87 126.5"/>
      <path class="cls-7" d="M108.84,108.53l23.31,22.6,1.02,10.95-18.23,12.92c-1.31.93-3.4,2.67-4.45,3.84l-25.62-26.34,6-6,17.97-17.97Z"/>
    </g>
  </g>
  <rect class="cls-6" x="147.67" y="214.67" width="38.67" height="38.67"/>
</svg>