<?xml version="1.0" encoding="UTF-8"?>
<svg id="Layer_1" data-name="Layer 1" xmlns="http://www.w3.org/2000/svg" xmlns:xlink="http://www.w3.org/1999/xlink" viewBox="0 0 512 512">
  <defs>
    <style>
      .cls-1 {
        fill: #ddd9dd;
      }

      .cls-2 {
        fill: #e0dde0;
      }

      .cls-3 {
        fill: #283135;
      }

      .cls-4 {
        fill: #f0edef;
      }

      .cls-5 {
        fill: none;
      }

      .cls-6 {
        fill: #ab1519;
      }

      .cls-7 {
        fill: #2e383d;
      }

      .cls-8 {
        fill: #cac2ca;
      }

      .cls-9 {
        opacity: .1;
      }

      .cls-10 {
        clip-path: url(#clippath);
      }
    </style>
    <clipPath id="clippath">
      <path class="cls-5" d="M222.92,139l-146.87.35-13.15-.22.07,20.91c.24.25.61.59.7.9,2.48,7.83,10.3,16.67,11.11,32.66.48,9.46-2.26,18.28-5.63,27.71-12.5,34.94-20.51,70.41-21.9,107.63l-.34,34.21.58,20.83,127.56.02-10.02-10.13c-12.64-12.86-21.71-28.49-21.91-46.89l-.7-61.79c1.18-10.04,6.89-19.06,16.55-23.03,5.31-2.18,10.68-2.13,15.92-2.13l-.04-37c0-6.36,4.65-11.02,11.01-11.01l26.18.04,5.83.02c2.97,0,5.04-2.07,5.04-5.02l-.04-27.34.05-20.7Z"/>
    </clipPath>
  </defs>
  <g>
    <g>
      <path class="cls-6" d="M222.83,432.43l-.23-35.23c-.07-10.74-11.11-13.4-20.1-13.36l-27.45.14-127.56-.02c-8.76,0-16.49,5.97-16.51,15.08l-.07,32.6.12,43.14,154.73.67c9.75,0,16.59-6.82,16.56-16.45l-.09-26.98,20.58.38Z"/>
      <path class="cls-7" d="M222.8,408.99l-.15,74.33c-.02,5.87-6.39,12.58-12.88,12.59l-166.57.15c-10.12-2.62-13.93-12.34-12.28-21.9l154.85.66c9.75,0,16.59-5.7,16.56-15.17l-.09-50.66h20.56Z"/>
      <path class="cls-7" d="M222.83,406.1l-.23-16.14c-.07-4.92-11.11-6.14-20.1-6.12l-27.45.06H47.5c-8.76,0-16.49,2.73-16.51,6.9l-.07,14.93,171.32.18,20.58.18Z"/>
    </g>
    <g>
      <g>
        <polygon class="cls-7" points="334.76 48.93 334.91 126.98 286.91 128.08 286.92 47.99 334.76 48.93"/>
        <path class="cls-3" d="M366.94,72.27v31.57c0,2.19.63,6.74-1.53,8.89-10.34,4.15-19.72,12.04-30.51,14.25l-.15-78.05c10.6,2.26,20.25,10.28,30.65,14.42,2.18,2.14,1.54,6.73,1.54,8.92Z"/>
      </g>
      <g>
        <path class="cls-1" d="M510.9,85.04v6c-1.34-.27-2.32.36-3.47,1.49l-11.58,11.36-22.06.31,10.13-31.66c3.64-.09,8.74-1.7,12.22.33,6.26,3.65,10.32,12.03,14.76,12.17Z"/>
        <path class="cls-4" d="M483.92,72.55l-10.13,31.66c-1.48,4.64-3.84,8.26-8.54,8.2-4.24-.06-8.92-4.02-7.38-8.85l10.14-31.68c1.49-4.65,3.83-8.26,8.53-8.19,4.24.06,8.92,4.04,7.38,8.87Z"/>
        <path class="cls-4" d="M451.92,72.55l-10.13,31.66c-1.48,4.64-3.84,8.26-8.54,8.2-4.24-.06-8.92-4.02-7.38-8.85l10.14-31.68c1.49-4.65,3.83-8.26,8.53-8.19,4.24.06,8.92,4.04,7.38,8.87Z"/>
        <path class="cls-4" d="M419.92,72.55l-10.13,31.66c-1.48,4.64-3.84,8.26-8.54,8.2-4.24-.06-8.92-4.02-7.38-8.85l10.14-31.68c1.49-4.65,3.83-8.26,8.53-8.19,4.24.06,8.92,4.04,7.38,8.87Z"/>
        <path class="cls-8" d="M387.82,72.08c-.42,10.64-.44,21.31.02,31.95l-20.9-.18v-31.57s20.88-.19,20.88-.19Z"/>
        <polygon class="cls-2" points="436.01 71.87 425.87 103.55 409.79 104.21 419.92 72.55 436.01 71.87"/>
        <polygon class="cls-2" points="468.01 71.87 457.87 103.55 441.79 104.21 451.92 72.55 468.01 71.87"/>
        <path class="cls-2" d="M404.01,71.87l-10.14,31.68-6.04.47c-.46-10.63-.44-21.31-.02-31.95l16.19-.21Z"/>
      </g>
    </g>
    <g>
      <path class="cls-6" d="M62.9,56.04v64s-21.09.04-21.09.04c-5.64.01-10.83-4.12-10.84-10.03l-.11-43.03c-.02-6.36,4.66-11.03,11-11.02l21.04.04Z"/>
      <rect class="cls-7" x="49.08" y="33.19" width="13.82" height="105.81"/>
    </g>
    <g>
      <path class="cls-7" d="M283.05,30.85l-17.02-4.17-43.08-9.94-.06,31.57,30.68.32c2.12.03,1.86,4.41,1.91,6.04.18,5.04-3.13,9.25-8.6,9.22l-24-.1v16.53s24.96.03,24.96.03c4.68,0,7.75,4.1,7.5,8.2-.26,4.2-3.73,7.33-8.44,7.32l-24.02-.06v16.51s24.96.04,24.96.04c4.68.01,7.75,4.1,7.5,8.2-.26,4.21-3.73,7.33-8.44,7.32l-24.01-.05.07,10.68-.04.52-.05,20.7,59.92-14.63c2.42-.6,4.04-2.63,4.06-5.02l.07-11.96V47.99s.01-12.02.01-12.02c0-2.29-1.52-4.55-3.87-5.13Z"/>
      <path class="cls-3" d="M222.89,63.78v-15.47s30.69.32,30.69.32c2.12.03,1.86,4.41,1.91,6.04.18,5.04-3.13,9.25-8.6,9.22l-24-.1Z"/>
      <path class="cls-3" d="M222.89,95.78v-15.47s24.96.03,24.96.03c4.68,0,7.75,4.1,7.5,8.2s-3.73,7.33-8.44,7.32l-24.02-.06Z"/>
      <path class="cls-3" d="M222.89,127.8v-15.51s24.96.04,24.96.04c4.68.01,7.75,4.1,7.5,8.2s-3.74,7.33-8.44,7.32l-24.01-.05Z"/>
    </g>
    <path class="cls-7" d="M199.14,185.05l4.94,42.68c.32,2.81-1.78,5.25-4.5,5.57l-31.78,3.7-4.33-36.75c-.75-6.31,3.34-11.48,9.66-12.21l26.01-3Z"/>
    <g class="cls-10">
      <path class="cls-6" d="M222.92,139l-146.87.35-13.15-.22.07,20.91c.24.25.61.59.7.9,2.48,7.83,10.3,16.67,11.11,32.66.48,9.46-2.26,18.28-5.63,27.71-12.5,34.94-20.51,70.41-21.9,107.63l-.34,34.21.58,20.83,127.56.02-10.02-10.13c-12.64-12.86-21.71-28.49-21.91-46.89l-.7-61.79c1.18-10.04,6.89-19.06,16.55-23.03,5.31-2.18,10.68-2.13,15.92-2.13l-.04-37c0-6.36,4.65-11.02,11.01-11.01l26.18.04,5.83.02c2.97,0,5.04-2.07,5.04-5.02l-.04-27.34.05-20.7Z"/>
      <path class="cls-7" d="M129.54,362.23c-.39-.01-.63-.4-.5-.77,1.8-5.1-7.09-15.9-7.11-33.2l-.08-60.61c-.01-11.46,27.06-11.97,33.99-20.38,4.76,8.83-13.99,9.11-13.87,19.38l13.98,96.53-26.41-.96Z"/>
    </g>
    <path class="cls-7" d="M64.17,138.85l14.06,20.7c.24.24.61.59.71.89,2.48,7.83,10.3,16.68,11.11,32.66.47,9.46-2.27,18.28-5.64,27.71-12.49,34.94-20.51,70.41-21.89,107.63l-.34,34.2.58.84h-15.98l-.58-.84.34-34.2c1.39-37.22,9.4-72.69,21.9-107.63,3.37-9.43,6.11-18.25,5.63-27.71-.8-15.98-8.63-24.83-11.11-32.66-.1-.3-.46-.65-.7-.89l-.07-20.91,1.98.21Z"/>
    <path class="cls-6" d="M222.95,16.74l-.06,31.57v15.47s0,16.53,0,16.53v15.47s0,16.51,0,16.51v15.51s.07,10.68.07,10.68l-.04.52-146.87.35-13.15-.22v-19.09s0-64,0-64V15.95s160.05.79,160.05.79Z"/>
    <path class="cls-7" d="M62.9,129.13h0s0-9.09,0-9.09l-21.1.04c-5.64.01-10.83-4.12-10.84-10.03l-.11-43.03c-.02-6.36,4.66-11.03,11-11.02l21.04.04.06-29.84h27.95s0-10.26,0-10.26l-51.07.15c-17.72.11-33.17,11.5-38.72,28.11v94.92h0,0c6.15,11.32,21.13,20.6,34.73,20.74l27.14.17-.07-30.91Z"/>
  </g>
  <path class="cls-7" d="M160.84,470.2h-33.17v-26.53h39.43c5.65,0,8.87,6.46,5.47,10.98l-11.73,15.56Z"/>
  <polygon class="cls-9" points="189.47 113.78 176.58 121.33 91.83 121.33 91.83 55.11 155.25 55.11 173.47 60 189.47 113.78"/>
  <polygon class="cls-7" points="189.47 113.77 176.58 121.33 162.59 121.33 175.48 113.77 159.48 60 141.26 55.11 155.25 55.11 173.47 60 189.47 113.77"/>
</svg>