<?xml version="1.0" encoding="UTF-8"?>
<svg id="Layer_1" data-name="Layer 1" xmlns="http://www.w3.org/2000/svg" viewBox="0 0 359.91 359.84">
  <defs>
    <style>
      .cls-1 {
        opacity: .05;
      }

      .cls-2 {
        fill: #aa1f23;
      }

      .cls-3 {
        fill: #283135;
      }

      .cls-4 {
        fill: #ab1519;
      }

      .cls-5 {
        fill: #2e383d;
      }

      .cls-6 {
        fill: #b5beba;
      }

      .cls-7 {
        opacity: .1;
      }
    </style>
  </defs>
  <path class="cls-2" d="M308.8,211.7l-39.9.02c-4.75,0-6.13-5.31-6.77-9.05-3.08-17.94-12.16-33.84-25.14-46.16-31.45-29.85-80.34-32.75-115.13-6.94-12.92,9.58-22.83,22.31-28.98,37.3l-3.69,8.98c-3.18,7.76-10.6,12.42-19.16,12.42H21.91c-.1-1.41.33-3.14.81-4.81l5-17.4c-.63-.61-1.48-.74-1.82-1.18.52-.11,1.84.22,2.22-.37l6.77-21.58,4.63-15.55c1.94-6.52,5.27-12.71,6.69-19.38,2.24-3.02,2.54-7.16,4.06-10.69l5.7-13.22c51.43-22.65,108.04-29.88,162.2-12.16,23.4,7.66,44.82,19.39,63.5,35.35,20.75,17.73,45.12,55.14,43.87,83.53-.03.66-.9.81-1.55.66,0,0-3.28,1.09-3.28,1.09-.39-.09-.8-.06-1.13.16l-10.77-1.01Z"/>
  <path class="cls-1" d="M308.8,211.7l-39.9.02c-4.75,0-6.13-5.31-6.77-9.05-3.08-17.94-12.16-33.84-25.14-46.16-31.45-29.85-80.34-32.75-115.13-6.94-12.92,9.58-22.83,22.31-28.98,37.3l-3.69,8.98c-3.18,7.76-10.6,12.42-19.16,12.42H21.91c-.1-1.41.33-3.14.81-4.81l5-17.4c-.63-.61-1.48-.74-1.82-1.18.52-.11,1.84.22,2.22-.37l6.77-21.58,4.63-15.55c1.94-6.52,5.27-12.71,6.69-19.38,2.24-3.02,2.54-7.16,4.06-10.69l5.7-13.22c51.43-22.65,108.04-29.88,162.2-12.16,23.4,7.66,44.82,19.39,63.5,35.35,20.75,17.73,45.12,55.14,43.87,83.53-.03.66-.9.81-1.55.66,0,0-3.28,1.09-3.28,1.09-.39-.09-.8-.06-1.13.16l-10.77-1.01Z"/>
  <path class="cls-3" d="M333.56,192.45v56.45c-1.39.45-2.39.08-3.39.09l.04-24-27.18-.1-.24-9.14c.84-3.29,2.38-6.38,3.57-9.82,1.15-.45,6.53-.68,6.86-.08.13.24.06.66.14.96-.35-.1-.93,0-1.23.5l-2.99,5.04c1.2,1.82,1.88,4.43,3.55,5.71,1.89.48,4.9.5,6.66-.04,1.43-1.32,2.06-3.71,3.38-5.22-.57-2.01-2.07-3.09-2.2-4.89,1.7-1.66,3.38-3.63,5.59-5.07,1.13-.74,2.88.21,4.01-.42l.18-9.97c1.36-.26,2.32.03,3.24,0Z"/>
  <path class="cls-5" d="M333.56,192.45v56.45c-1.39.45-2.39.08-3.39.09l.04-24-27.18-.1-.24-9.14c.84-3.29,2.38-6.38,3.57-9.82,1.15-.45,6.53-.68,6.86-.08.13.24.06.66.14.96-.35-.1-.93,0-1.23.5l-2.99,5.04c1.2,1.82,1.88,4.43,3.55,5.71,1.89.48,4.9.5,6.66-.04,1.43-1.32,2.06-3.71,3.38-5.22-.57-2.01-2.07-3.09-2.2-4.89,1.7-1.66,3.38-3.63,5.59-5.07,1.13-.74,2.88.21,4.01-.42l.18-9.97c1.36-.26,2.32.03,3.24,0Z"/>
  <g>
    <g>
      <path class="cls-4" d="M315.67,209.73c-.4-.08-1.24.36-1.65-.25-.57-.84-.45-1.87-.66-2.67-.08-.3,0-.72-.14-.96-.33-.6-5.71-.36-6.86.08-1.2,3.45-2.74,6.53-3.57,9.82-.21.83-1.23,1.69-1.65,2.4l-39.12.02c-4.66,0-6.01-5.19-6.64-8.85-3.02-17.56-11.92-33.11-24.65-45.17-30.84-29.21-78.76-32.05-112.87-6.8-12.67,9.38-22.38,21.83-28.41,36.49l-3.62,8.79c-3.12,7.59-10.39,12.15-18.78,12.15H19.87c-.1-1.38.33-3.07.8-4.7l4.9-17.03c-.62-.59-1.45-.73-1.79-1.16.51-.11,1.81.22,2.18-.37l6.64-21.11,4.54-15.21c1.9-6.38,5.16-12.43,6.56-18.96,2.2-2.95,2.49-7.01,3.98-10.46l5.59-12.94c50.42-22.16,105.93-29.24,159.02-11.9,22.94,7.49,43.94,18.97,62.25,34.59,20.58,17.55,42.93,46.09,41.13,74.19Z"/>
      <path class="cls-3" d="M301.14,218.16c-.15.57.37,2.55-.62,2.87l-23.71.35-8.82.13c-2.79.04-6.15.19-8.95-.23-4.62-.7-5.64-5-6.25-8.51-7.69-44.51-49.68-74.98-94.36-68.66-31.14,4.4-57.13,25.95-67.6,55.68-1.02,2.9-2.82,5.39-3.47,8.36-3.04,13.87-1.3,27.88,2.59,41.18h-30.32s-2.51-12.68-2.51-12.68c-1.23-6.22-1.66-12.38-1.53-18.54-1.68-.66-3.06.2-4.34.19l-32.29-.25c-.67-1.27.57-2.42.91-3.22h47.19c8.39-.01,15.66-4.57,18.78-12.17l3.62-8.79c6.03-14.66,15.74-27.12,28.41-36.49,34.11-25.25,82.03-22.41,112.87,6.8,12.73,12.06,21.63,27.61,24.65,45.17.63,3.66,1.98,8.85,6.64,8.85l39.12-.02Z"/>
      <path class="cls-5" d="M301.14,218.16c-.15.57.37,2.55-.62,2.87l-23.71.35-8.82.13c-2.79.04-6.15.19-8.95-.23-4.62-.7-5.64-5-6.25-8.51-7.69-44.51-49.68-74.98-94.36-68.66-31.14,4.4-57.13,25.95-67.6,55.68-1.02,2.9-2.82,5.39-3.47,8.36-3.04,13.87-1.3,27.88,2.59,41.18h-30.32s-2.51-12.68-2.51-12.68c-1.23-6.22-1.66-12.38-1.53-18.54-1.68-.66-3.06.2-4.34.19l-32.29-.25c-.67-1.27.57-2.42.91-3.22h47.19c8.39-.01,15.66-4.57,18.78-12.17l3.62-8.79c6.03-14.66,15.74-27.12,28.41-36.49,34.11-25.25,82.03-22.41,112.87,6.8,12.73,12.06,21.63,27.61,24.65,45.17.63,3.66,1.98,8.85,6.64,8.85l39.12-.02Z"/>
    </g>
    <g>
      <path class="cls-4" d="M247.07,75.06c1.61,6.36,2,11.5,9.24,14.68,10.73,4.71,24.04,6.91,34.22,12.36,7.33,3.92,8.74,9.75,9.33,17.23-2.86,3.37-7.18,4.96-11.51,6.58-2.43.91-4.67,2.15-7.48,1.93-8.13-7.49-17.26-13-26.72-18.62l-5.23-3.11c-16.44-9.76-34.96-14.67-53.89-18.27-25.61-4.86-51.5-5.02-77.23-1.4-.7.1-1.29.06-1.51-.3,8.46-3.67,15.47-9.89,17.52-19.25.69-3.16,1.46-7.11-.29-9.96-7.13-11.67-19.51-26.13-30.75-33.96-.97-.68-2.08-1.04-2.42-2.06.92-.56,2-.98,3.51-.94,8.61.21,16.63,2.43,24.54,5.71,4.54,1.88,8.83,3.58,13.16,5.87,17.77,9.37,35.65,23.39,49,38.33,4.52,5.05,9.37,9.51,15.04,13.3,7.32,4.89,14.22,6.51,22.3,2.62,5.64-2.71,10.59-6.13,15.78-9.54,1.12-.73,2.2-1.35,3.36-1.18Z"/>
      <path class="cls-5" d="M299.86,119.33c-.59-7.48-2-13.3-9.33-17.23-10.18-5.45-23.49-7.66-34.22-12.36-7.24-3.17-7.63-8.32-9.24-14.68.19-.61.66-1.04,1.46-1.41,17.34-7.89,40.51-5.45,52.83,9.7,7.84,9.64,8.4,22.93,1.47,33.13-.88,1.3-2.18,1.91-2.98,2.85Z"/>
      <g>
        <path class="cls-5" d="M100.37,20.9c.34,1.03,1.44,1.39,2.42,2.06,11.23,7.82,23.61,22.28,30.75,33.96,1.74,2.85.98,6.81.29,9.96-2.05,9.36-9.06,15.58-17.52,19.25-3.1,1.35-7.52,2.25-10.9,1.9l-30.89-3.22c-10.49-1.09-19.33,8.18-23.67,17.23-2.6,5.41-4.62,10.16-6.89,15.62-1.61,3.87-2.31,15.12-.25,18.58-1.4,6.53-4.66,12.59-6.56,18.96l-17.31-2.25c-2.42,12.49-4.98,24.42-6.03,36.5-5.09-.24-17.18-8.31-16.11-13.8,5.5-28.24,3.98-34.51,18.59-60.43,16.49-29.26,46.39-63.29,69.77-87.67,1.61-1.67,11.63-8.13,14.32-6.66Z"/>
        <path class="cls-4" d="M37.13,155.22l-4.54,15.21-6.64,21.11c-.37.58-1.67.26-2.18.37-1.03.22-9.21-1.28-9.98-2.45,1.05-12.08,3.6-24.01,6.03-36.5l17.31,2.25Z"/>
      </g>
    </g>
  </g>
  <path class="cls-3" d="M313.36,206.81c.21.8.09,1.83.66,2.67.41.6,1.25.16,1.65.25,1.68.35,3.56-.55,4.86-1.82.13,1.8,1.64,2.88,2.2,4.89-1.32,1.51-1.95,3.9-3.38,5.22-1.76.54-4.77.52-6.66.04-1.67-1.28-2.35-3.89-3.55-5.71l2.99-5.04c.29-.49.88-.6,1.23-.5Z"/>
  <path class="cls-7" d="M313.36,206.81c.21.8.09,1.83.66,2.67.41.6,1.25.16,1.65.25,1.68.35,3.56-.55,4.86-1.82.13,1.8,1.64,2.88,2.2,4.89-1.32,1.51-1.95,3.9-3.38,5.22-1.76.54-4.77.52-6.66.04-1.67-1.28-2.35-3.89-3.55-5.71l2.99-5.04c.29-.49.88-.6,1.23-.5Z"/>
  <g>
    <path class="cls-3" d="M362.12,253.08c0,.51.54,2.13-.31,2.13h-86.03s-12.89.12-12.89.12l-170.53-.03c5.85,14.58,15.67,26,27.38,35.53,6.87,5.59,10.78,14.11,9.24,22.31l-1.31,6.99c-2.96,6.62-6.44,12.85-12.45,17.28-1.36,1-2.66,1.05-3.85,1.64-.04-.87-1-1.82-1.53-2.7,1.68-4.99,2.59-13.87-2.26-17.45-21.54-15.9-37.53-37.96-45.84-63.45-2.12-.98-4.22.15-6.1.13l-52.63-.45c-.58-.08-.41-1.56-.34-2.06h359.45Z"/>
    <path class="cls-5" d="M362.12,253.08c0,.51.54,2.13-.31,2.13h-86.03s-12.89.12-12.89.12l-170.53-.03c5.85,14.58,15.67,26,27.38,35.53,6.87,5.59,10.78,14.11,9.24,22.31l-1.31,6.99c-2.96,6.62-6.44,12.85-12.45,17.28-1.36,1-2.66,1.05-3.85,1.64-.04-.87-1-1.82-1.53-2.7,1.68-4.99,2.59-13.87-2.26-17.45-21.54-15.9-37.53-37.96-45.84-63.45-2.12-.98-4.22.15-6.1.13l-52.63-.45c-.58-.08-.41-1.56-.34-2.06h359.45Z"/>
    <path class="cls-5" d="M111.36,339.05c-1.89.93-4.38,1.37-6.49-.23-7.5-5.67,2.18-7.93-4.15-18.96-21.65-16.15-37.91-38.45-45.09-64.28,1.88.02,3.98-1.12,6.1-.13,8.3,25.49,24.3,47.55,45.84,63.45,4.85,3.58,3.93,12.46,2.26,17.45.53.88,1.5,1.83,1.53,2.7Z"/>
    <path class="cls-5" d="M59.63,249.33c-1.9,0-4-.27-5.84-.25-1.89-10.16-3.24-20.46-2.54-30.78,1.28.01,2.66-.84,4.34-.19-.13,6.16.3,12.32,1.53,18.54l2.51,12.68Z"/>
    <g>
      <path class="cls-6" d="M262.88,255.33c-1.32,5.39-3.92,10.43-6.54,15.52-.26.5-.32.92-.28,1.32-7.07.73-11.59-3.37-13.59,4.17,1.49,2.19,3.29,4.98,5.18,6.62-.05.57-.06,1.31-.57,1.94-4.82,6.01-10.16,11.3-15.98,16.03-3.39-.86-6.23-2.97-9.73-4.16-1.59,1.09-2.86,1.8-4.37,3.14.91,2.97,1.25,6.26,2.64,8.83-7.15,4.1-14.72,7.34-22.64,9.57l-6.99-7.38-5.45,1.36c-.41,3.07-1.14,6.08-.87,8.93-8.19.66-16.38,1.14-24.54.05-1.46-2.85-2.16-5.99-3.48-9.09l-6.07-1.03c-1.35,2.56-3.01,4.99-3.84,7.57-4.93-1.24-9.75-2.9-14.6-5.07-.78-.35-1.51-.51-2.16-.51,1.54-8.2-2.38-16.72-9.24-22.31-11.71-9.52-21.52-20.95-27.38-35.53l170.53.03Z"/>
      <path class="cls-6" d="M231.1,300.94c5.82-4.74,11.15-10.02,15.98-16.03.51-.63.52-1.37.57-1.94,3.7,3.22,7.99,5.28,12.8,7.82-8.24,4.38-15.72,8.93-23.96,12.4-2.17.91-3.91-1.87-5.39-2.24Z"/>
      <path class="cls-6" d="M196.99,318.32c7.92-2.24,15.49-5.48,22.64-9.57,2.28,4.23,5.39,7.83,8.55,11.51l-27.61,2.16c-1.65-1.15-2.44-2.89-3.58-4.09Z"/>
      <path class="cls-6" d="M183.68,321.22c.44,4.7,1.82,9.09,3.62,13.86l-26.25-8.57c-1.47-1.12-1.21-3.88-1.91-5.24,8.16,1.09,16.35.61,24.54-.05Z"/>
      <path class="cls-6" d="M145.74,318.72c-1.44,4.4-1.89,8.98-2.12,14.1l-15.96-12.69,1.31-6.99c.66,0,1.38.16,2.16.51,4.84,2.17,9.66,3.84,14.6,5.07Z"/>
      <path class="cls-6" d="M275.78,255.22c-4.44,5.88-9.19,11.63-14.5,17.02-1.58.94-3.75-.22-5.22-.07-.04-.39.02-.82.28-1.32,2.63-5.1,5.22-10.14,6.54-15.52l12.89-.11Z"/>
      <path class="cls-6" d="M276.81,221.38c-1.07,4.28-2.59,8.6-4.36,12.72-1.46,1.33-3.65.9-4.94,1.62.42-4.72.82-9.48.48-14.21l8.82-.13Z"/>
      <path class="cls-7" d="M231.1,300.94c5.82-4.74,11.15-10.02,15.98-16.03.51-.63.52-1.37.57-1.94,3.7,3.22,7.99,5.28,12.8,7.82-8.24,4.38-15.72,8.93-23.96,12.4-2.17.91-3.91-1.87-5.39-2.24Z"/>
      <path class="cls-7" d="M196.99,318.32c7.92-2.24,15.49-5.48,22.64-9.57,2.28,4.23,5.39,7.83,8.55,11.51l-27.61,2.16c-1.65-1.15-2.44-2.89-3.58-4.09Z"/>
      <path class="cls-7" d="M183.68,321.22c.44,4.7,1.82,9.09,3.62,13.86l-26.25-8.57c-1.47-1.12-1.21-3.88-1.91-5.24,8.16,1.09,16.35.61,24.54-.05Z"/>
      <path class="cls-7" d="M145.74,318.72c-1.44,4.4-1.89,8.98-2.12,14.1l-15.96-12.69,1.31-6.99c.66,0,1.38.16,2.16.51,4.84,2.17,9.66,3.84,14.6,5.07Z"/>
      <path class="cls-7" d="M275.78,255.22c-4.44,5.88-9.19,11.63-14.5,17.02-1.58.94-3.75-.22-5.22-.07-.04-.39.02-.82.28-1.32,2.63-5.1,5.22-10.14,6.54-15.52l12.89-.11Z"/>
      <path class="cls-7" d="M276.81,221.38c-1.07,4.28-2.59,8.6-4.36,12.72-1.46,1.33-3.65.9-4.94,1.62.42-4.72.82-9.48.48-14.21l8.82-.13Z"/>
      <path class="cls-6" d="M267.99,221.51c.34,4.73-.06,9.49-.48,14.21-3.09,1.74-6.64,2.34-10,3.97-.51,1.62-.83,3.14-.95,4.91,2.53,2.02,5.43,3.22,8.23,4.52l-77.75.22c15.02-10.81,17.53-31.01,5.94-44.48-11.63-13.52-32.76-13.55-44.58-.41-12.08,13.43-9.76,34,5.62,44.85l-64.06.04c-3.9-13.3-5.64-27.32-2.59-41.18.65-2.97,2.45-5.45,3.47-8.36,10.47-29.73,36.46-51.28,67.6-55.68,44.68-6.31,86.67,24.15,94.36,68.66.61,3.51,1.63,7.81,6.25,8.51,2.8.42,6.16.27,8.95.23Z"/>
      <path class="cls-5" d="M362.12,253.08H2.67c.14-1.05-.35-2.52.14-3.61l50.98-.39c1.84-.01,3.94.25,5.84.25h30.32s64.06-.03,64.06-.03c-15.38-10.85-17.71-31.41-5.62-44.85,11.82-13.14,32.95-13.11,44.58.41,11.58,13.47,9.08,33.67-5.94,44.48l77.75-.22c.62.12,1.69.36,2.67.35l62.71-.47c1,0,2,.36,3.38-.09v-56.45c3.33-.08,6.66-.13,10.22,0l.03,56.95,18.35.09c.28,1.36-.04,2.65-.03,3.59Z"/>
    </g>
  </g>
</svg>