<?xml version="1.0" encoding="UTF-8"?>
<svg id="Layer_1" data-name="Layer 1" xmlns="http://www.w3.org/2000/svg" xmlns:xlink="http://www.w3.org/1999/xlink" viewBox="0 0 512 512">
  <defs>
    <style>
      .cls-1 {
        fill: #c6bcbf;
      }

      .cls-2, .cls-3 {
        fill: #283135;
      }

      .cls-3, .cls-4 {
        opacity: .1;
      }

      .cls-5 {
        fill: none;
      }

      .cls-6 {
        clip-path: url(#clippath-1);
      }

      .cls-7 {
        fill: #ab1519;
      }

      .cls-8 {
        fill: #2e383d;
      }

      .cls-9 {
        clip-path: url(#clippath);
      }

      .cls-10 {
        fill: #010705;
      }
    </style>
    <clipPath id="clippath">
      <path class="cls-5" d="M398.9,156.88h57.65c3.51,0,5.62,1.99,6.07,4.15.48,2.32-1.27,5.68-5.57,5.69l-58.14.08c-3.85,0-6.13-2.45-6.14-4.93-.02-2.55,2.28-4.99,6.13-4.99ZM392.74,147.08c.11-2.33,2.4-4.85,6.2-4.85h57.59c3.45,0,5.56,2.07,6.08,4.01.68,2.5-1.14,5.82-5.53,5.82l-58.18.07c-3.91,0-6.28-2.4-6.16-5.06ZM457.16,137.46l-58.32.07c-3.78,0-5.85-2.15-6.09-4.42-.29-2.75,1.95-5.4,6.07-5.4h57.8c3.71,0,5.87,2.15,6.1,4.52.2,2.11-1.28,5.22-5.57,5.22ZM462.71,117.45c.31,2.73-1.97,5.43-6.09,5.43h-57.79c-3.71,0-5.87-2.2-6.1-4.56-.19-2.03,1.35-5.14,5.01-5.15l58.88-.11c3.78,0,5.84,2.12,6.09,4.39ZM276.66,255.17l1.32,10.87.99,11.2.99,10.21c.66,5.93,6.92,10.87,13.17,13.17,12.51,4.61,17.78,21.07,20.42,32.93,3.95,16.79,7.9,32.93,13.5,49.39,2.63,7.9-.33,14.49-5.6,20.74-10.54,12.51-6.59,27.33,7.24,36.55,16.46,10.87,40.17,3.62,59.6-3.62l36.88-19.76c8.89-8.56,13.5-28.65,13.5-39.84l.33-31.94c0-3.62-.66-6.92-1.32-10.21-4.28-31.28-13.83-61.25-27.66-90.55-4.94-10.54.33-22.06,13.83-26.01,22.39-6.26,48.73-10.54,65.2-25.03,8.89-7.9,15.48-16.79,19.1-26.34,13.17-32.6-7.24-65.2-46.43-77.71-39.84-12.51-81.34-19.43-124.47-22.06l-24.7-.66c-8.89-.33-18.44-.33-27.33,0l-23.71.66-13.83.99-15.15.99c-32.93,2.63-65.2,6.92-97.14,12.51-22.39,3.62-44.78,8.23-67.17,13.83-2.31.66-5.27,1.98-5.27,3.95l-.33,27.66v32.6l.33,20.09v.99c0,2.63,4.28,3.62,7.25,4.28,21.73,5.27,43.47,9.88,65.2,13.5,22.72,3.95,89.64,7.76,112.69,10.39l28.58,46.25Z"/>
    </clipPath>
    <clipPath id="clippath-1">
      <path class="cls-5" d="M135.39,81.63v116.9c-21.73-3.62-43.47-8.23-65.2-13.5-2.96-.66-7.25-1.65-7.25-4.28v-.99h-.33v-.66c-.33,0-.99-.33-1.32-.33-12.18-2.96-23.71-6.26-35.89-10.54v-55.98c11.85-4.28,23.38-7.24,35.89-10.54.33,0,.99-.33,1.32-.33v-1.98h.33c0-1.98,2.96-3.29,5.27-3.95,22.39-5.6,44.78-10.21,67.17-13.83Z"/>
    </clipPath>
  </defs>
  <path class="cls-8" d="M247,193.67l7.39,73.62c.49,4.85,4.92,8.18,9.62,7.71l54.82-5.46-6.23-63.41c-1.07-10.89-9.84-18.09-20.74-16.99l-44.86,4.53Z"/>
  <path class="cls-1" d="M38.71,166.04c-21.42,0-38.85-4.15-38.85-25.57H-.14c0-21.42,17.09-26.36,38.51-26.36l.35,51.93Z"/>
  <path class="cls-4" d="M38.72,165.81v.33c-21.4,0-38.86-4.28-38.86-25.68s17.12-26.34,38.53-26.34v.33c-17.45,1.32-30.29,7.24-30.29,26.01s13.17,24.37,30.62,25.36Z"/>
  <rect class="cls-10" x="384.14" y="104.87" width="84.19" height="77.52"/>
  <g class="cls-9">
    <path class="cls-7" d="M398.9,156.88h57.65c3.51,0,5.62,1.99,6.07,4.15.48,2.32-1.27,5.68-5.57,5.69l-58.14.08c-3.85,0-6.13-2.45-6.14-4.93-.02-2.55,2.28-4.99,6.13-4.99ZM392.74,147.08c.11-2.33,2.4-4.85,6.2-4.85h57.59c3.45,0,5.56,2.07,6.08,4.01.68,2.5-1.14,5.82-5.53,5.82l-58.18.07c-3.91,0-6.28-2.4-6.16-5.06ZM457.16,137.46l-58.32.07c-3.78,0-5.85-2.15-6.09-4.42-.29-2.75,1.95-5.4,6.07-5.4h57.8c3.71,0,5.87,2.15,6.1,4.52.2,2.11-1.28,5.22-5.57,5.22ZM462.71,117.45c.31,2.73-1.97,5.43-6.09,5.43h-57.79c-3.71,0-5.87-2.2-6.1-4.56-.19-2.03,1.35-5.14,5.01-5.15l58.88-.11c3.78,0,5.84,2.12,6.09,4.39ZM276.66,255.17l1.32,10.87.99,11.2.99,10.21c.66,5.93,6.92,10.87,13.17,13.17,12.51,4.61,17.78,21.07,20.42,32.93,3.95,16.79,7.9,32.93,13.5,49.39,2.63,7.9-.33,14.49-5.6,20.74-10.54,12.51-6.59,27.33,7.24,36.55,16.46,10.87,40.17,3.62,59.6-3.62l36.88-19.76c8.89-8.56,13.5-28.65,13.5-39.84l.33-31.94c0-3.62-.66-6.92-1.32-10.21-4.28-31.28-13.83-61.25-27.66-90.55-4.94-10.54.33-22.06,13.83-26.01,22.39-6.26,48.73-10.54,65.2-25.03,8.89-7.9,15.48-16.79,19.1-26.34,13.17-32.6-7.24-65.2-46.43-77.71-39.84-12.51-81.34-19.43-124.47-22.06l-24.7-.66c-8.89-.33-18.44-.33-27.33,0l-23.71.66-13.83.99-15.15.99c-32.93,2.63-65.2,6.92-97.14,12.51-22.39,3.62-44.78,8.23-67.17,13.83-2.31.66-5.27,1.98-5.27,3.95l-.33,27.66v32.6l.33,20.09v.99c0,2.63,4.28,3.62,7.25,4.28,21.73,5.27,43.47,9.88,65.2,13.5,22.72,3.95,89.64,7.76,112.69,10.39l28.58,46.25Z"/>
    <rect class="cls-3" x="154.63" y="68.4" width="3.29" height="148.5"/>
    <path class="cls-8" d="M500.76,186.16c4.26-5.26,5.17-13.43,7.38-19.25,13.17-32.6-7.24-65.2-46.43-77.71-39.84-12.51-81.34-19.43-124.47-22.06l-25.25-.67c-8.93,0-17.85,0-26.77.01l-23.71.66-13.83.99-15.15.99c-32.93,2.63-65.2,6.92-97.14,12.51-22.39,3.62-44.78,8.23-67.17,13.83-2.31.66-5.27,1.98-5.27,3.95v.99c19.76-4.61,39.19-8.56,58.94-11.85,31.94-5.6,64.21-9.88,97.14-12.51l15.15-.99,13.83-.99,23.71-.66c8.93,0,17.85,0,26.77-.01l25.25.67c43.14,2.63,84.63,9.55,124.47,22.06,41.74,13.33,57.35,47.52,43.42,84.08-2.26,1.49-5.19,3.42-7.45,4.92l-116.76,13.94c-7.62.45-13.55,5.09-16.41,9-4.35,5.95-3.2,11.44-.82,17.48l38.22,97.09c2.62,6.65,6.23,13.36,12.09,18.06l16.19,12.97c2.58,2.07,18.33,26.79,21.86,26.15-.35-21.39,11.91-57.56,6.64-77.37-4.6-17.28-11.81-29.93-18.96-46.45-7.75-17.9-2.73-19.19,19.65-23.96l54.88-45.88Z"/>
    <path class="cls-8" d="M323.43,321.65c4.85,24.26,16.88,54.04,4.26,73.76-5.95-27.91-19.65-56.53-23.3-85.43l19.04,11.67Z"/>
  </g>
  <g class="cls-6">
    <path class="cls-8" d="M135.39,81.63v116.9c-21.73-3.62-43.47-8.23-65.2-13.5-2.96-.66-7.25-1.65-7.25-4.28v-.99h-.33v-.66c-.33,0-.99-.33-1.32-.33-12.18-2.96-23.71-6.26-35.89-10.54v-55.98c11.85-4.28,23.38-7.24,35.89-10.54.33,0,.99-.33,1.32-.33v-1.98h.33c0-1.98,2.96-3.29,5.27-3.95,22.39-5.6,44.78-10.21,67.17-13.83Z"/>
    <rect class="cls-2" x="61.3" y="99.41" width="3.29" height="80.35"/>
  </g>
</svg>