<?xml version="1.0" encoding="UTF-8"?>
<svg id="Layer_1" data-name="Layer 1" xmlns="http://www.w3.org/2000/svg" viewBox="0 0 512 512">
  <defs>
    <style>
      .cls-1 {
        fill: #43525b;
      }

      .cls-2 {
        fill: #216d76;
      }

      .cls-3 {
        fill: #c6bcbf;
      }

      .cls-4 {
        fill: #2e383d;
      }

      .cls-5 {
        fill: #687279;
      }

      .cls-6 {
        fill: #010000;
      }

      .cls-7 {
        opacity: .1;
      }
    </style>
  </defs>
  <g>
    <path class="cls-3" d="M280.91,429.61l-.05-41.27c-8.29.14-16.58.16-24.87-.06l-15.21-.41-9.77.46.05,40.82-16.39,24.97,24.36,57.87h33.83l24.34-57.86-16.28-24.53Z"/>
    <path class="cls-7" d="M297.19,454.14l-24.33,57.86h-8.43l22.1-52.53-16.29-24.53-.05-41.27c-8.28.14-16.58.17-24.87-.06l-14.3-.38v-4.89s9.76-.47,9.76-.47l15.21.41c8.29.22,16.58.2,24.87.06l.05,41.27,16.28,24.53Z"/>
    <path class="cls-2" d="M313.69,235.1c.37-9.61.57-19.28.05-28.9-10.91,1.14-22.01-.59-32.91-.06-16.47.82-33.11-.05-49.65.47l-8.23.26c-8.25.26-16.59-.32-24.87-.11l-.04,42.23c0,4.23,3.99,7.05,7.89,7.18,3.32-.62,6.17.42,8.89.13,8.65-.91,17.38-.03,26.04-.03l56.32.03c7.6,0,15.81.9,16.78-7.27.58-4.94-.42-9.54-.25-13.94Z"/>
    <path class="cls-7" d="M313.94,249.04c-.97,8.16-9.18,7.27-16.78,7.27l-56.32-.04c-8.65,0-17.38-.88-26.03.03-2.72.29-5.57-.75-8.89-.13-3.9-.12-7.89-2.95-7.89-7.17v-2.63c.19.02.37.03.56.04,3.32-.62,6.16.42,8.88.13,8.65-.91,17.39-.03,26.04-.03l56.32.04c7.6,0,15.81.89,16.78-7.27.58-4.94-.42-9.54-.25-13.94.24-6.23.41-12.49.35-18.75,2.35-.03,4.69-.15,7.03-.39.52,9.62.33,19.29-.05,28.9-.17,4.4.83,9,.25,13.94Z"/>
    <path class="cls-2" d="M296.9,356.94c-1.14-12.36-10.35-16.69-10.08-38.95.29-23.74,10.6-19.55,10.49-37.97l-.15-23.72-56.32-.03c-8.65,0-17.39-.88-26.04.03-.58,7.68-.21,15.45-.24,23.71-.06,18.45,10.12,14.45,10.62,37.98.44,20.91-9.17,27.25-10.21,38.96-.93,10.53-.18,20.48-.34,31.16l16.36.23,9.77-.46,15.21.41c8.29.22,16.59.2,24.87.06l16.4-.28c-.24-10.78.62-20.56-.36-31.12Z"/>
    <path class="cls-7" d="M284.6,387.63c-.25-10.78.61-20.56-.36-31.12-1.14-12.36-10.35-16.69-10.08-38.95.29-23.74,10.6-19.55,10.48-37.96l-.14-23.72h12.67l.14,23.72c.11,18.41-10.2,14.22-10.48,37.96-.27,22.26,8.94,26.59,10.08,38.95.97,10.56.11,20.34.35,31.12h-12.66Z"/>
    <path class="cls-4" d="M297.38,383.2c.07,11.63-4.02,14.24-7.12,20.58h-68.61c-3.1-6.27-7.12-9-7.08-20.59.02-8.27-.35-16.04.23-23.72,8.66-.91,17.4-.03,26.06-.03l56.37.04.14,23.72Z"/>
    <g>
      <g>
        <g>
          <path class="cls-1" d="M423.13,66.37c1.38,5.47-3.18,22.18,8.09,22.23l80.78.41v6.98c-.85-.06-1.94.28-2.54,1.32-3.58,6.25-9.47,9.51-16.79,10.48h-95.82c.54-4.91-.9-10.12-.82-14.88l.42-26.92,26.69.37Z"/>
          <path class="cls-5" d="M512,78v11.02l-80.78-.41c-11.27-.06-6.7-16.76-8.09-22.23l67.86-.26c7.54-.03,14.28,3.4,18.19,9.65.8,1.27,1.56,2.25,2.82,2.23Z"/>
        </g>
        <g>
          <path class="cls-1" d="M115.56,66l.41,26.92c.07,4.78-1.31,9.99-.82,14.91l-95.83-.03c-7.51-1.02-13.59-4.56-16.94-11.19-.54-1.08-1.54-1.58-2.39-1.61v-6l79.9-.29c12.52-.05,7.45-15.69,8.97-22.33l26.7-.37Z"/>
          <path class="cls-5" d="M88.87,66.37c-1.51,6.65,3.56,22.29-8.97,22.33l-79.9.29v-10c.92-.01,1.68-.5,2.28-1.68,3.33-6.57,9.94-11.15,17.74-11.13l68.85.18Z"/>
        </g>
      </g>
      <path class="cls-6" d="M328,0v1c-.8.02-1.68-.19-2-1h2Z"/>
      <path class="cls-2" d="M396.02,92.92l.42-26.92-.11-8.07c-.07-4.66-3.51-8.29-8.3-8.27l-32.71.15-.16-14.85c-.16-14.75-8.6-27.73-22.35-32.73-1.28-.47-1.95-1.31-1.82-2.24h-3v1c-.8.02-1.68-.19-2-1h-145c.11,1.14-.54,1.67-1.99,2.2-11.66,4.31-20.82,14.93-21.85,27.77-.55,6.88-.47,13.48-.48,19.85l-32.72-.16c-4.77-.02-8.22,3.63-8.29,8.26l-.11,8.07.41,26.92h0c.07,4.78-1.31,9.99-.82,14.91.22,2.15.2,4.56.21,7.06.02,5.73,4.05,9.2,9.58,9.2h31.82s.17,29.96.17,29.96c.48,8.27,4.13,15.42,9.85,21.18l31.28,31.54c8.28-.21,16.62.37,24.87.11l8.23-.26c16.54-.52,33.18.35,49.65-.47,10.9-.54,22,1.19,32.91.06l31.36-31.08c6.49-6.43,9.9-14.88,9.98-24.1l.22-27.05,33.7-.08c9.2-.02,7.54-13.27,7.84-16.07.54-4.92-.9-10.13-.82-14.9"/>
      <path class="cls-7" d="M396.85,107.82c-.3,2.79,1.36,16.04-7.84,16.07l-33.7.08-.22,27.05c-.08,9.21-3.49,17.67-9.98,24.1l-31.36,31.07c-10.91,1.14-22.02-.59-32.91-.05-16.47.81-33.11-.05-49.65.47l-8.24.26c-8.25.26-16.59-.33-24.87-.12l-31.28-31.53c-1.28-1.29-2.46-2.65-3.5-4.08l25.45,25.66c8.28-.21,16.62.38,24.87.12l8.23-.26c16.54-.53,33.18.34,49.66-.47,10.89-.54,21.99,1.19,32.9.05l31.37-31.08c6.48-6.42,9.9-14.88,9.98-24.1l.22-27.04,33.7-.09c9.2-.02,7.53-13.27,7.84-16.07.18-1.63.14-3.28.01-4.95h8.5c-.08,4.77,1.36,9.99.82,14.91Z"/>
    </g>
  </g>
  <path class="cls-4" d="M193.69,0v202.33l-26.89-27.11c-5.72-5.76-9.37-12.9-9.85-21.18l-.17-29.94h-31.82c-5.53-.01-9.56-3.49-9.58-9.21-.01-2.5,0-4.91-.22-7.06-.48-4.81.82-9.87.82-14.55v-.36l-.41-26.92.11-8.07c.06-4.64,3.52-8.29,8.29-8.27l32.72.16c0-6.37-.08-12.97.48-19.85,1.03-12.84,10.18-23.46,21.84-27.77,1.45-.53,2.11-1.06,1.99-2.2h12.69Z"/>
  <path class="cls-4" d="M318.33,0v202.33s26.89-27.11,26.89-27.11c5.72-5.76,9.37-12.9,9.85-21.18l.17-29.94h31.82c5.53-.01,9.56-3.49,9.58-9.21.01-2.5,0-4.91.22-7.06.48-4.81-.82-9.87-.82-14.55v-.36s.41-26.92.41-26.92l-.11-8.07c-.06-4.64-3.52-8.29-8.29-8.27l-32.72.16c0-6.37.08-12.97-.48-19.85-1.03-12.84-10.18-23.46-21.84-27.77C331.56,1.67,330.9,1.14,331.02,0h-12.69Z"/>
</svg>