<?xml version="1.0" encoding="UTF-8"?>
<svg id="Layer_1" xmlns="http://www.w3.org/2000/svg" version="1.1" xmlns:xlink="http://www.w3.org/1999/xlink" viewBox="0 0 1920 998">
  <!-- Generator: Adobe Illustrator 30.5.1, SVG Export Plug-In . SVG Version: 2.1.4 Build 3)  -->
  <defs>
    <style>
      .st0, .st1, .st2, .st3, .st4, .st5 {
        display: none;
      }

      .st0, .st1, .st6 {
        opacity: .4;
      }

      .st1, .st7, .st6, .st4 {
        fill: #ff00f9;
      }

      .st2, .st8 {
        fill: #2e383d;
      }

      .st3 {
        fill: #ab1519;
      }
    </style>
  </defs>
  <image width="1920" height="998" xlink:href="TE80-1.png"/>
  <path class="st6" d="M1589.4,617.5c-2-5.1-5.8-8.1-6.9-12.5,14.9-4,11.3-29.9,16.4-48.8,2-7.5,2-14.5,3-22l2.9-21.7c.8-6.5,1.2-12.4,1.7-18.9,1.4-17.7,3.3-34.7,6.1-52.3l6.1-37.8,4.9-41.3,2-18.7,2.5-22,5.9-48.4c1-8,2.4-16,0-23.8-1-3.3-1.8-8.2-3.9-10.6-2.6-3.1-1.7-5.4-3.1-8.4l-40.4-86.6c-2.3-4.9-5.4-8.7-7.1-13.9-2.2-6.8-5.3-13.2-9.8-19.3l.7-2.4c-4-11.9-13-21.3-16.4-30.8-2-5.8-3.4-11.8-7.8-16.9-6-6.9-9.7-21.5-16.8-30.7L1506.9.2c7-.3,14-.4,21.6.4,19,2,33.1.5,50.2,5.5,1.5,1.8,74.5,17.7,76,20l92.4,15.1,42.5,7.1c30.6,3.5,32.1,4.6,31.7,4.6,9.8,2.7,41,3.6,50.2,7.4,34.2,23.1,6.7,31.1,10.2,64.3l15.1,41.5c.8,5,16.3,62,16,64.4-.6,6.1,7.1,74.2,7.1,80l-3.6,83.1c0,10.4,0,45.7-.9,56.5l-9.8,19-16.4,16.9s-22.7,36.9-40.9,65.8c-5.5,6.3-8.2,21.3-16,24.9-3.1,1.4-12.4-7.5-15.5-6.4-11.5-.3-30.8-12.8-44.5-11.4l-10.2,8.4c-3.5,1.6-12.1,14.8-16,15.1,0,0-17.6,23.2-30.2,28.9l-30.7,33.3c-6.1,8-35.8,24.3-42.6,31.6-3.8,4.1-14.1-4.6-16.2-3.3l-37.2-55.6h.1ZM1686.4,356c-1,1.5-4,.7-4.4,1.4-4.5,9.2,6.3,9.4,2,21.9-.8,1.1-3.9.6-4.4,1.4-3.5,4.6-.4,8.1,2.9,11.5,4.5,4.6-7.5,15.8,5.9,32.3,4.9,6,10.3,10.5,18.2,13.1,14.7,5,28.7,8.1,44.5,11.9,14.8,3.6,33.2-7.4,32.8-23l-2.2-85.5c-.7-25.6.4-49.9,2.3-75.3l5.4-71c1-12.7-3.6-24.2-16.1-31.2-7.5-4.2-16.4-9.3-27-5.8l-53.7,17.6c-10.5,3.4-13.7,13.1-11.7,21.9.5,2.3-5.4,2.4-6,3.8-1.7,3.6,3.7,5.2,6.6,7.3,3,2.3,4.1,8.3,3.1,11.5-3.5,10.8,7.1,7.1,6.7,22.5-2.3,1.5-5.1,1.2-7.4,3.1,8.3,4.7,13.2,11.6,10.5,19.9-2.3,1.3-5.4.6-7.5,2.4,5,5.4,10.1,13.1,5.7,19.6-1.5,2.3-6.8,3.4-4.1,8.5,2.1,4,4.8,9.9,1.4,14.4-.9,1.3-4.5.9-4.1,2.7.3,1.7-1,4,.6,5.8,3.4,3.8,6.1,11.5.7,14.4-10.3,5.6,5.3,14.6-.8,23.1h0Z"/>
  <path class="st3" d="M1151.7,373.7c-2.6-3.4-4.5-6.7-6.8-10.1-1-1.5-.6-2.8.8-4.1,3.5-1.2,7.3-1.5,11.2-2.3,5.1-1,10-2.4,15.1-3.1.6,0,1.2.3,1.5.5.3.2.5,1,.4,1.6l-1.5,7.6c-.4,1-.5,2.8-1.7,3.3l-18.9,6.7h0Z"/>
  <path class="st3" d="M1142,351.2h-10.1c-1.1,0-2-.6-2.4-1.6l-6.2-13.4c-.2-.4-.2-.8-.1-1.1s.6-.6,1.2-.6h9.2c1.5,0,2.2.9,2.8,2.1l5.5,12.3c.3.7.6,1.4.1,2.3h0Z"/>
  <g class="st0">
    <path class="st7" d="M894.9,87.2c-1.8,1.1-1.8,2.6-1.7,4.1.1,4.6-.2,9.1-.2,13.9l-.2,36.9c0,1.7,0,2.9,0,4.9v18c-.1,0,2.7,26.4,2.7,26.4.5-2.9,1.6,19.2,1.9,16.2.9-8,20.5,7.8,22.2-.1l35.5,18.2,77.5-6.8,25.7,25.5,22.8,7,49.5,107c.6-3.6,15.9,8.7,14.4,5.2l55.7,22.8c13.2,5.4,26.7,15.1,29.9,28.9,11,47.6,35,143.9,34,143-1.1-1-10.7,18.9-16.8,30.7s-5.3,8.3-.6,9.2l161.4,31.1c-1.4-2.2,184-60.6,183-63-1.3-3.1,1.7-121.1-1-123.9l4-204.1c-2.4-5.4-23-47.6-25-51.9-1.2-2.6-44.3-109.8-47-112.1-3.6-3.1-24.7-48.8-29-53l-11-16c-3.6.1-163.6.3-167.5-.2-2.7-.3-5.1-1.3-8-.6-3.3.8-6.7.5-10.3.9l-66.1,6-19.2,1.8c-12.6,1.2-25.6,5.5-37.2,9.3-40.7,1.7-72.7-.3-113.7,13.7-.6,2.4-21.7,9-24.3,10l-17.7-4c-2.9,1.5-32.9,2.8-48.5,3.5-6.2.3-12.3,1.6-18.1,3.9l-31.4,12.6c-5.6.4-17.3.1-23.2.2l-2.4,24.5Z"/>
  </g>
  <g class="st5">
    <path class="st8" d="M1060.2,539.9c-1,.1-2.1-.2-3.1,0-.7-1-1.8-6.9-.9-8,.6-.8,3.1-.2,3.3.9,0-.1,1.7,8.9.8,7.1h0Z"/>
    <path class="st8" d="M1078.1,541.6c-1.1-.1-2.2,0-3.2-.2-.5-2.3-.1-4.7,0-7.2,1-.2,2.6-.5,3.3.2.4.7.7,7.2,0,7.3Z"/>
    <path class="st8" d="M1048.2,538.4c-.3,0-.6,0-.9,0h-1.3c0-.1-.4-.1-.4-.1-1-2.4-3.2-4.8-3.4-7.7.7-.8,3.4-.5,3.8.8.8,2.5,1.8,4.7,2.1,7h0Z"/>
    <path class="st8" d="M1054.2,539.1h-.9c0-.4-.4-.5-.4,0-.6,0-1.2-.2-1.8,0-1.3-2.1-2.4-4.8-2.4-7.4.7-.7,3-.5,3.5.3.6,1,0,2.4.6,3.3.9,1.2,1.2,2.5,1.3,3.8h0Z"/>
    <path class="st8" d="M1088.7,542.5c-.5.1-1.1-.2-1.6,0,0-2.2-.3-4.7.4-7,.2-.8,2.8-.7,3.1,0,.8,2.3,0,4.5,0,6.7-.9-.1-1.3.2-1.8.3h0Z"/>
    <path class="st8" d="M1072.5,541.2c-.3,0-.5,0-.8,0-.4-.5-1.4-.5-1.8,0-.2,0-.5,0-.7,0,0-2.8-1-4.9-.2-7.7,1-.2,1.9,0,3.1.3.3,2.6.5,5,.5,7.5Z"/>
    <path class="st8" d="M1083.2,542.1h-2.1c0-2.2,0-4.9,0-7.2.5-.7,2.8-.7,3.2.1,0,1.5,1.1,8.4-1.1,7.1h0Z"/>
    <path class="st8" d="M1042.2,537.8c-.2,0-.6,0-.9,0-1.7-1.4-4.6-5-5.1-7.5,0-.9,1.8-.8,2.5-.6.8.3,1.4.9,1.7,2,1,3.5,2.9,4.6,1.8,6.3h0Z"/>
    <path class="st8" d="M1096.5,542.4h-.4c-.5,0-.9.2-1.3.5-.5-.1-1.1-.1-1.6,0-.2-2.1-.2-4.8.7-6.9.3-.8,2.9-.3,3,.5.3,2.2-.2,4.1-.4,5.9h0Z"/>
    <path class="st8" d="M1066.5,540.5h-3.4c-.9-2.4-.3-5-.4-7.7,1,0,2.3-.3,3,.3,0,2.6.4,5,.8,7.4h0Z"/>
    <path class="st8" d="M1037.2,536.9c-.2-.1-.7-.1-1-.1-2.3-1.9-4-4.6-5.5-7.5.6-.7,1.8-.7,2.4-.4.9.4,4.5,6.8,4,8.1h0Z"/>
    <path class="st8" d="M1032.5,535c-2.3,1.6-5.6-5.1-7-6.5.7-.5,2.1-.8,2.6,0,1.6,2.1,2.8,4.2,4.3,6.6h0Z"/>
  </g>
  <circle class="st1" cx="1249" cy="134.5" r="55.7"/>
  <path class="st1" d="M1249.2,83.1c-28,0-50.8,22.7-50.8,50.8s22.7,50.8,50.8,50.8,50.8-22.7,50.8-50.8-22.7-50.8-50.8-50.8ZM1249.2,176.2c-23.3,0-42.3-18.9-42.3-42.3s18.9-42.3,42.3-42.3,42.3,18.9,42.3,42.3-18.9,42.3-42.3,42.3Z"/>
  <path class="st1" d="M1287.9,151.5l-113.7,1.4c-5.8,0-10.5-4.6-10.6-10.5l-.2-12.7c0-5.9,4.5-10.7,10.3-10.8l117.2-3.3c9.9-.1,12,9.8,12.1,20h0c.1,8.7-6.7,15.8-15.2,15.9Z"/>
  <polygon class="st4" points="1173.6 134.8 1183.7 139.6 1183.7 129.9 1173.6 134.8"/>
  <path class="st3" d="M963.5,417.7c-2.7.4-5.2.6-8,.4-.6-1.6-.5-3.3-.1-5.3,2.7-.1,5.3,0,8.1.3.3,1.6.2,2.8,0,4.6h0Z"/>
  <path class="st2" d="M893.7,340.3h-12.8c-12.8,0-23.3,10.5-23.3,23.3v111.3c0,9.7,6,18,14.4,21.5l-7.1,8.5.2,32.3c0,1.7,1.4,2.6,2.8,2.7l15.4.5c3.3.1,24.3-1,25.3-2.2.7-.8,1-1.7.9-2.9-.6-10.5-1.3-20.7-1.3-31.3l-6.5-7.2c8.9-3.3,15.2-11.9,15.2-21.9v-111.4c0-12.8-10.5-23.3-23.3-23.3h0Z"/>
  <path class="st6" d="M895.1,184.9l-1.1-49.2v-50.7c.2-9,2.6-15.6,3.3-23.3.3-3.2-1.1-6.4-3.7-8.3h-.2c-4.3-1.3-28.1.1-38.3,4.6-4.7,2.1-6.7,16.2-14.2,20.3h-10.2v-5.7c-.2-3.2-2.8-5.7-5.8-5.5l-62.6,2.6-67.5,2-16.4,2.5c-7.9-1.1-30.3,11.9-38,11.4-2.7-.2-1.3-3.7-3.6-3.1-10.2,2.8-10.5,1.1-20.2,6.2-2.7,1.4-4.9,11.4-11.1,15.5-5.4,3.5-14.9,0-17.1,1.6-5.2,3.7-4.4,24-4,29.9-.4,5.8-1.3,24.5,4,28.1,2.2,1.5,11.7-1.8,17.1,1.6,6.2,3.9,8.4,14.6,11.1,16,9.8,4.9,13.1,3.2,23.2,5.9,2.3.6.6-2.9.6-2.9,7.7-.4,30.1,12.2,38,11.1l16.4,2.4,67.5,1.9,62.6,2.5c3.1.1,6.6-2.3,6.7-5.4v-4.5h9.3c7.5,4,11.6,19.7,16.2,21.7,10.2,4.4,33.9,5.5,38.1,4.4h.3c2.6-1.7,2.1-7.8,1.7-10.9-.8-7.6-2.2-13.9-2.2-22.7Z"/>
</svg>