<?xml version="1.0" encoding="UTF-8"?>
<svg id="Layer_2" data-name="Layer 2" xmlns="http://www.w3.org/2000/svg" viewBox="0 0 225.48 267.93">
  <defs>
    <style>
      .cls-1, .cls-2 {
        fill: #f0f0f0;
      }

      .cls-3 {
        fill: #ff9800;
      }

      .cls-4 {
        fill: #e1e1e2;
      }

      .cls-5 {
        fill: #2b2f32;
      }

      .cls-2 {
        opacity: .2;
      }
    </style>
  </defs>
  <g id="Layer_1-2" data-name="Layer 1">
    <g id="Alert">
      <g id="Shield">
        <path id="Background" class="cls-5" d="M109.66.4c3.31-.99,7.03-.15,9.41,2.42,13.37,12.34,29.83,21.41,47.61,25.47,13.85,3.37,28.24,4.07,42.43,3.37,4.17-.09,9.15-1.82,12.66,1.31,3.47,2.89,2.49,7.76,2.88,11.72,2.1,34.72.56,70.05-8.75,103.71-8.49,31.2-24.78,60.47-47.86,83.23-14.79,14.13-31.98,25.75-50.5,34.41-2.79,1.35-6.08,2.75-9.1,1.22-31.36-14.21-59.23-37.2-76.8-67.04-14.74-23.91-23.24-51.15-27.85-78.72C-.16,93.76-1.04,65.61,1.23,37.69c.12-3.24,2.89-5.92,5.97-6.5,2.3-.28,4.6.09,6.91.23,19.88,1.52,40.38-.14,58.97-7.8,10.75-4.5,21.04-10.35,29.73-18.18,2.2-1.77,4.05-4.19,6.85-5.04"/>
        <path id="Main_Colour" data-name="Main Colour" class="cls-3" d="M45.23,45.81c24.39-3.07,48.06-12.71,67.02-28.49,6.05,4,11.66,8.68,18.03,12.21,23.8,13.91,52.04,18.57,79.31,16.81,2.13,23.93,1.41,48.15-2.28,71.9-4.8,31.19-15.9,62.01-35.51,87.03-15.59,20.26-36.5,36.24-59.8,46.66-17.24-7.57-33.08-18.44-46.32-31.84-23.76-23.94-38.22-55.76-44.98-88.52-5.72-27.95-6.92-56.67-5.28-85.1,9.94.44,19.91.48,29.81-.66"/>
      </g>
      <g id="Exclamation">
        <g id="Dot">
          <path id="Background-2" data-name="Background" class="cls-5" d="M108.61,158.3c10.56-2.87,21.24,6.85,20.85,17.41.16,9.88-9.47,18.61-19.31,17.18-8.5-.85-15.65-8.6-15.57-17.18-.4-8.27,5.97-15.91,14.03-17.41"/>
          <path id="Main_Colour-2" data-name="Main Colour" class="cls-4" d="M108.5,163.39c6.07-2.17,13.06,1.75,15.13,7.68,3.27,7.56-3.27,17.11-11.48,16.95-7.31.32-13.37-7.17-12.51-14.2.39-4.88,4.28-9.02,8.86-10.43h0Z"/>
        </g>
        <g id="Bar">
          <path id="Background-3" data-name="Background" class="cls-5" d="M106.66,66.47c11.36-3.95,24.58,6.21,23.23,18.22-1.59,19-3.75,37.96-5.31,56.96-.85,8.36-11.26,12.07-18.24,8.82-4.3-1.8-7.24-6.1-7.59-10.71-1.64-18.05-3.34-36.1-5.2-54.13-1.14-8.5,4.82-17.08,13.11-19.16"/>
          <path id="Main_Colour-3" data-name="Main Colour" class="cls-1" d="M107.57,71.36c6.08-2.24,13.41.87,16.18,6.69,1.59,2.95,1.3,6.37,1.02,9.59-1.62,17.71-3.27,35.43-4.8,53.15-1.2,6.25-10.18,7.47-14.18,3.16-2.06-1.79-2.3-4.62-2.5-7.15-1.39-17.43-3.23-34.81-4.99-52.2-.55-5.91,3.82-11.4,9.27-13.24h0Z"/>
        </g>
      </g>
      <path id="Highlight" class="cls-2" d="M210.08,46.52c-13.17.73-26.47.23-39.44-2.26-21.12-4.1-41.05-13.58-57.85-26.99-7.4,5.19-14.48,10.95-22.71,14.85-22.93,12.11-49.39,15.96-75.07,14.64-1.6,32.14-.09,64.76,8.21,95.98,7.86,28.46,21.57,55.9,42.72,76.83,13.55,13.34,29.05,25.13,46.73,32.41,20.5-9.52,39.28-22.98,53.98-40.22,19.12-21.89,31.3-49.17,37.63-77.37,6.14-28.82,7.32-58.51,5.8-87.87ZM200.68,133.63c-6.63,29.55-19.36,55.75-36.8,75.71-13.36,15.67-31.06,28.98-51.29,38.61-14.99-6.43-29.42-16.59-44.06-31-18.89-18.7-33.33-44.7-41.75-75.19-7.01-26.37-9.72-56.23-8.25-91.16,2.01.06,4.02.1,6,.1,25.37,0,47.98-5.14,67.21-15.28,6.62-3.15,12.49-7.41,18.17-11.53.93-.67,1.86-1.35,2.79-2.02,17.04,13.06,36.78,22.04,57.25,26.01,9.11,1.75,18.97,2.63,29.31,2.63,2.39,0,4.84-.05,7.33-.14,1.36,30.99-.57,58.25-5.9,83.25Z"/>
    </g>
  </g>
</svg>