<?xml version="1.0" encoding="UTF-8"?>
<svg id="Layer_2" data-name="Layer 2" xmlns="http://www.w3.org/2000/svg" viewBox="0 0 226.01 268.09">
  <defs>
    <style>
      .cls-1, .cls-2 {
        fill: #f0f0f0;
      }

      .cls-3 {
        fill: #e1e1e2;
      }

      .cls-4 {
        fill: #2b2f32;
      }

      .cls-2 {
        opacity: .2;
      }

      .cls-5 {
        fill: #ffe57f;
      }
    </style>
  </defs>
  <g id="Layer_1-2" data-name="Layer 1">
    <g id="Caution">
      <g id="Shield">
        <path id="Background" class="cls-4" d="M110.17.42c3.37-1.08,7.06,0,9.48,2.54,17.16,16.16,39.92,25.73,63.24,28.28,10.93,1.41,22.01,1.03,32.95-.09,3.5-.49,7.45,1.39,8.6,4.87.78,3.51.56,7.15.83,10.72.27,12.03,1.29,24.07.35,36.09-1.01,41.19-10.46,83.1-32.68,118.21-18.29,29.29-45.71,52.59-77.25,66.51-2.06.9-4.4.61-6.36-.33-15.21-6.91-29.6-15.74-42.2-26.73-21.18-17.48-37.25-40.61-47.92-65.8C8.35,148.41,2.32,120.2.83,91.83-.38,74.15-.22,56.38.99,38.71c-.15-3.8,2.97-7.38,6.85-7.41,5.65.04,11.29.75,16.96.67,12.11.48,24.18-1.31,35.94-4.1,16.88-4.36,32.47-13.13,45.44-24.72,1.21-1.04,2.4-2.25,3.99-2.73"/>
        <path id="Main_Colour" data-name="Main Colour" class="cls-5" d="M104.96,23.02c2.55-1.92,5-3.96,7.67-5.72,10.93,8.08,22.47,15.58,35.27,20.35,19.6,7.87,41.05,10.42,62.03,8.93,1.96,23.09,1.16,46.39-1.95,69.34-5.38,36.83-19.69,73.28-45.4,100.71-5.22,5.46-10.85,10.52-16.61,15.42-8.65,7.1-18.38,12.74-28.28,17.88-2.02.83-4.29,2.63-6.47,1.31-14.21-6.58-27.35-15.41-38.91-25.96-20.35-17.87-34.71-41.8-43.81-67.13-10.62-29.15-13.55-60.44-13.84-91.28.22-6.75.26-13.52.84-20.25,31.27,2.26,63.78-5.18,89.46-23.6"/>
      </g>
      <g id="Exclamation">
        <g id="Dot">
          <path id="Background-2" data-name="Background" class="cls-4" d="M108.88,158.38c10.56-2.87,21.24,6.85,20.85,17.41.16,9.88-9.47,18.61-19.31,17.18-8.5-.85-15.65-8.6-15.57-17.18-.4-8.27,5.97-15.91,14.03-17.41"/>
          <path id="Main_Colour-2" data-name="Main Colour" class="cls-3" d="M108.77,163.47c6.07-2.17,13.06,1.75,15.13,7.68,3.27,7.56-3.27,17.11-11.48,16.95-7.31.32-13.37-7.17-12.51-14.2.39-4.88,4.28-9.02,8.86-10.43h0Z"/>
        </g>
        <g id="Bar">
          <path id="Background-3" data-name="Background" class="cls-4" d="M106.93,66.55c11.36-3.95,24.58,6.21,23.23,18.22-1.59,19-3.75,37.96-5.31,56.96-.85,8.36-11.26,12.07-18.24,8.82-4.3-1.8-7.24-6.1-7.59-10.71-1.64-18.05-3.34-36.1-5.2-54.13-1.14-8.5,4.82-17.08,13.11-19.16"/>
          <path id="Main_Colour-3" data-name="Main Colour" class="cls-1" d="M107.84,71.44c6.08-2.24,13.41.87,16.18,6.69,1.59,2.95,1.3,6.37,1.02,9.59-1.62,17.71-3.27,35.43-4.8,53.15-1.2,6.25-10.18,7.47-14.18,3.16-2.06-1.79-2.3-4.62-2.5-7.15-1.39-17.43-3.23-34.81-4.99-52.2-.55-5.91,3.82-11.4,9.27-13.24h0Z"/>
        </g>
      </g>
      <path id="Highlight" class="cls-2" d="M210.35,46.72c-13.17.73-26.47.23-39.44-2.26-21.12-4.1-41.05-13.58-57.85-26.99-7.4,5.19-14.48,10.95-22.71,14.85-22.93,12.11-49.39,15.96-75.07,14.64-1.6,32.14-.09,64.76,8.21,95.98,7.86,28.46,21.57,55.9,42.72,76.83,13.55,13.34,29.05,25.13,46.73,32.41,20.5-9.52,39.28-22.98,53.98-40.22,19.12-21.89,31.3-49.17,37.63-77.37,6.14-28.82,7.32-58.51,5.8-87.87ZM200.94,133.82c-6.63,29.55-19.36,55.75-36.8,75.71-13.36,15.67-31.06,28.98-51.29,38.61-14.99-6.43-29.42-16.59-44.06-31-18.89-18.7-33.33-44.7-41.75-75.19-7.01-26.37-9.72-56.23-8.25-91.16,2.01.06,4.02.1,6,.1,25.37,0,47.98-5.14,67.21-15.28,6.62-3.15,12.49-7.41,18.17-11.53.93-.67,1.86-1.35,2.79-2.02,17.04,13.06,36.78,22.04,57.25,26.01,9.11,1.75,18.97,2.63,29.31,2.63,2.39,0,4.84-.05,7.33-.14,1.36,30.99-.57,58.25-5.9,83.25Z"/>
    </g>
  </g>
</svg>