<?xml version="1.0" encoding="UTF-8"?>
<svg id="Layer_2" data-name="Layer 2" xmlns="http://www.w3.org/2000/svg" viewBox="0 0 225.51 267.96">
  <defs>
    <style>
      .cls-1, .cls-2 {
        fill: #f0f0f0;
      }

      .cls-3 {
        fill: red;
      }

      .cls-4 {
        fill: #2b2f32;
      }

      .cls-2 {
        opacity: .2;
      }
    </style>
  </defs>
  <g id="Layer_1-2" data-name="Layer 1">
    <g id="Danger">
      <g id="Shield">
        <path id="Background" class="cls-4" d="M108.93.88c3.18-1.51,7.41-1.11,9.99,1.42,14.38,13.42,32.43,23.11,51.82,26.76,14.76,2.94,29.96,3.3,44.92,1.92,3.69-.57,8.17,1.78,8.62,5.75,2.42,36.72,1.96,74.23-7.87,109.94-9.12,33.39-26.29,65.14-52.09,88.57-12.96,12.27-28.16,21.9-44.02,29.94-3.28,1.41-6.91,3.92-10.55,2.19-30.69-14-57.77-36.49-75.82-65.11-10.35-15.17-17.31-32.34-22.99-49.72C0,115.43-1.65,76.17,1.27,37.79c.13-4.11,4.39-7.22,8.34-6.71,25.16,2.06,51.77.17,74.31-12.16,9.25-4.66,17.27-11.28,25.01-18.04"/>
        <path id="Main_Colour" data-name="Main Colour" class="cls-3" d="M210,46.34c-19.54,1.23-39.52-.57-58.03-7.22-14.23-4.79-27.14-12.71-39.14-21.62-.07-.05-.14-.1-.21-.15-8.53,7.28-18.08,13.36-28.37,17.82-21.42,9.77-45.35,12.48-68.67,11.13-2.86,45.59,1.21,93.37,22.89,134.38,15.68,31.22,42.3,56.7,74.15,71.08.07-.03.14-.06.21-.09,36.24-15.96,65.58-46.59,80.62-83.17,15.79-38.52,19.39-80.94,16.55-122.16Z"/>
      </g>
      <g id="Cross">
        <path id="Background-2" data-name="Background" class="cls-4" d="M80.21,75.14c1.52-1.54,4.18-1.25,5.47.44,8.84,9.42,18.2,18.33,27.18,27.61,8.57-9.51,18.43-17.79,27.11-27.22,1.4-1.95,4.37-2.75,6.19-.86,5.56,5.47,10.84,11.24,16.55,16.57,1.6,1.62,3.9,3.45,3.22,6.05-.69,1.86-2.67,2.79-3.95,4.21-8.46,8.38-16.68,17-25.11,25.41,9.17,9.5,18.61,18.74,27.86,28.17,1.85,1.59,2.08,4.75-.03,6.24-6.28,5.7-11.93,12.04-17.94,18.02-1.41,1.71-4.29,2.39-6.01.81-9.25-9.45-18.49-18.93-27.86-28.26-8.23,8.62-17,16.7-25.28,25.28-1.75,1.64-3.36,3.8-5.86,4.26-1.81-.43-2.99-1.92-4.22-3.18-5.38-5.9-11.2-11.38-16.81-17.06-1.68-1.56-1.66-4.41-.04-6,9.16-9.56,18.84-18.63,28.2-27.99-8.25-8.45-16.43-17.02-24.82-25.34-1.57-1.76-4.38-3.01-4.38-5.67-.28-1.67,1.03-2.77,2.11-3.77,6.32-5.72,12.16-11.95,18.42-17.72"/>
        <path id="Main_Colour-2" data-name="Main Colour" class="cls-1" d="M65.18,96.66c5.81-5.75,11.74-11.38,17.52-17.16,9.44,9.65,18.54,19.66,28.48,28.81,1.89,2.03,4-.5,5.26-1.91,9.11-8.95,18.35-17.78,27.04-27.13,5.64,5.89,11.48,11.57,17.27,17.32-9.77,9.31-19.18,18.98-28.74,28.5-1.59,1.26-1.29,3.75.26,4.93,9.51,9.66,19.21,19.13,28.87,28.65-6.06,5.7-11.99,11.54-17.94,17.36-8.78-9.19-17.87-18.08-26.79-27.13-1.56-1.75-4.45-2.62-6.26-.72-9.5,9.28-18.79,18.77-28.26,28.08-5.95-5.78-11.44-12.04-17.66-17.53,9.96-9.26,19.25-19.19,29.07-28.58,1.6-1.22,1.79-3.87.09-5.1-9.34-9.52-18.63-19.1-28.21-28.39h0Z"/>
      </g>
      <path id="Highlight" class="cls-2" d="M210.35,46.45c-13.17.73-26.47.23-39.44-2.26-21.12-4.1-41.05-13.58-57.85-26.99-7.4,5.19-14.48,10.95-22.71,14.85-22.93,12.11-49.39,15.96-75.07,14.64-1.6,32.14-.09,64.76,8.21,95.98,7.86,28.46,21.57,55.9,42.72,76.83,13.55,13.34,29.05,25.13,46.73,32.41,20.5-9.52,39.28-22.98,53.98-40.22,19.12-21.89,31.3-49.17,37.63-77.37,6.14-28.82,7.32-58.51,5.8-87.87ZM200.95,133.55c-6.63,29.55-19.36,55.75-36.8,75.71-13.36,15.67-31.06,28.98-51.29,38.61-14.99-6.43-29.42-16.59-44.06-31-18.89-18.7-33.33-44.7-41.75-75.19-7.01-26.37-9.72-56.23-8.25-91.16,2.01.06,4.02.1,6,.1,25.37,0,47.98-5.14,67.21-15.28,6.62-3.15,12.49-7.41,18.17-11.53.93-.67,1.86-1.35,2.79-2.02,17.04,13.06,36.78,22.04,57.25,26.01,9.11,1.75,18.97,2.63,29.31,2.63,2.39,0,4.84-.05,7.33-.14,1.36,30.99-.57,58.25-5.9,83.25Z"/>
    </g>
  </g>
</svg>