<?xml version="1.0" encoding="UTF-8"?>
<svg id="Layer_2" data-name="Layer 2" xmlns="http://www.w3.org/2000/svg" viewBox="0 0 225.82 267.92">
  <defs>
    <style>
      .cls-1, .cls-2 {
        fill: #f0f0f0;
      }

      .cls-3 {
        fill: #4caf50;
      }

      .cls-4 {
        fill: #2b2f32;
      }

      .cls-2 {
        opacity: .2;
      }
    </style>
  </defs>
  <g id="Layer_1-2" data-name="Layer 1">
    <g id="Safe">
      <g id="Shield">
        <path id="Background" class="cls-4" d="M110.6.36c3.07-.74,6.68-.45,8.95,1.99,23.66,23.35,58.57,32.11,91.05,29.13,3.41-.21,7.15-1.23,10.34.52,2.14,1.03,3.8,3.19,3.83,5.63,1.85,30.07,1.62,60.48-3.86,90.18-4.58,24.26-12.64,48.04-25.31,69.3-18.47,30.98-47.07,55.57-79.94,70.21-1.97.88-4.22.76-6.14-.18-18.95-8.34-36.25-20.27-51.17-34.59-21.99-21.44-37.8-48.85-46.55-78.21C.53,117.01-1.72,77.47,1.1,38.74c-.37-4.77,4.51-8.45,9.03-7.64,22.94,2.24,46.89.35,68.05-9.4,8.73-3.73,16.76-8.95,24.19-14.82,2.79-2.11,4.93-5.18,8.23-6.52"/>
        <path id="Main_Colour" data-name="Main Colour" class="cls-3" d="M90.48,32.04c8.23-3.9,15.31-9.66,22.71-14.85,16.8,13.41,36.73,22.89,57.85,26.99,12.97,2.49,26.27,2.99,39.44,2.26,1.52,29.36.34,59.05-5.8,87.87-6.33,28.2-18.51,55.48-37.63,77.37-14.7,17.24-33.48,30.7-53.98,40.22-17.68-7.28-33.18-19.07-46.73-32.41-21.15-20.93-34.86-48.37-42.72-76.83-8.3-31.22-9.81-63.84-8.21-95.98,25.68,1.32,52.14-2.53,75.07-14.64"/>
      </g>
      <path id="Background-2" data-name="Background" class="cls-4" d="M150.54,87.04c1.67-1.47,3.22-3.56,5.65-3.63,1.91.05,3.25,1.53,4.53,2.75,5.09,5.26,10.1,10.59,15.39,15.66,1.03,1.11,2.4,2.22,2.39,3.89-.47,2.29-2.41,3.81-3.92,5.43-24.43,23.91-48.84,47.84-73.1,71.91-1.74,1.78-4.78,1.64-6.36-.28-8.01-8.98-16.89-17.14-25.19-25.84-6.66-7-13.69-13.65-20.38-20.62-1.88-1.55-.92-4.22.65-5.58,6-6.03,12.26-11.79,18.35-17.72,1.83-2.07,5.15-1.52,6.73.57,7.81,8.03,15.78,15.9,23.76,23.76,17.11-16.82,34.38-33.48,51.5-50.3"/>
      <path id="Main_Colour-2" data-name="Main Colour" class="cls-1" d="M121.68,122.29c11.46-11.26,22.92-22.5,34.48-33.65,5.5,5.76,11.26,11.28,16.76,17.05-6.39,6.85-13.3,13.17-19.95,19.76-15.81,15.89-32.14,31.26-47.84,47.27-2.18,2.11-4.23,4.37-6.67,6.18-15.05-14.89-29.65-30.22-44.8-44.99,6.12-5.47,11.88-11.3,17.65-17.12,8.49,8.44,17.08,16.79,25.52,25.29,1.2,1.49,3.49,1.62,4.67.03,6.45-6.89,13.57-13.1,20.18-19.82h0Z"/>
      <path id="Highlight" class="cls-2" d="M210.48,46.44c-13.17.73-26.47.23-39.44-2.26-21.12-4.1-41.05-13.58-57.85-26.99-7.4,5.19-14.48,10.95-22.71,14.85-22.93,12.11-49.39,15.96-75.07,14.64-1.6,32.14-.09,64.76,8.21,95.98,7.86,28.46,21.57,55.9,42.72,76.83,13.55,13.34,29.05,25.13,46.73,32.41,20.5-9.52,39.28-22.98,53.98-40.22,19.12-21.89,31.3-49.17,37.63-77.37,6.14-28.82,7.32-58.51,5.8-87.87ZM201.08,133.54c-6.63,29.55-19.36,55.75-36.8,75.71-13.36,15.67-31.06,28.98-51.29,38.61-14.99-6.43-29.42-16.59-44.06-31-18.89-18.7-33.33-44.7-41.75-75.19-7.01-26.37-9.72-56.23-8.25-91.16,2.01.06,4.02.1,6,.1,25.37,0,47.98-5.14,67.21-15.28,6.62-3.15,12.49-7.41,18.17-11.53.93-.67,1.86-1.35,2.79-2.02,17.04,13.06,36.78,22.04,57.25,26.01,9.11,1.75,18.97,2.63,29.31,2.63,2.39,0,4.84-.05,7.33-.14,1.36,30.99-.57,58.25-5.9,83.25Z"/>
    </g>
  </g>
</svg>