<?xml version="1.0" encoding="UTF-8"?>
<svg id="Layer_1" data-name="Layer 1" xmlns="http://www.w3.org/2000/svg" viewBox="0 0 31 31">
  <defs>
    <style>
      .cls-1 {
        fill: #264659;
      }

      .cls-2 {
        fill: #396690;
      }
    </style>
  </defs>
  <path class="cls-2" d="M24.65,14.91c2.29-1,3.99-2.77,3.99-5.77v-.07c0-1.77-.63-3.14-1.66-4.18-1.52-1.52-3.81-2.33-7.06-2.33h-2.92c1.49.4,2.69,1.07,3.65,2.02,1.19,1.19,1.79,2.7,1.79,4.49v.07c0,2.49-1.15,4.45-3.33,5.71,3.05,1.27,4.48,3.31,4.48,6.38v.07c0,3.65-2.27,6.16-6.23,7.13h2.63c6.17,0,9.8-2.7,9.8-7.13v-.07c0-3.51-2-5.29-5.14-6.32h0Z"/>
  <path class="cls-1" d="M15.97,20.31c0,1.52-1.26,2.37-3.44,2.37h-5.54v-4.77h5.47c2.4,0,3.51.92,3.51,2.33v.07h0ZM6.99,8.33h4.66c2.14,0,3.25.81,3.25,2.22v.07c0,1.52-1.22,2.25-3.4,2.25h-4.51v-4.54h0ZM23.14,21.31v-.07c0-3.51-2-5.29-5.14-6.32,2.29-1,3.99-2.77,3.99-5.77v-.07c0-1.77-.63-3.14-1.66-4.18-1.52-1.52-3.81-2.33-7.06-2.33H0v25.88h13.34c.09,0,.17,0,.25,0h-.23c1.15,0,2.22-.09,3.18-.28,4.2-.8,6.59-3.25,6.59-6.86h0Z"/>
</svg>