<?xml version="1.0" encoding="UTF-8"?>
<svg id="Layer_1" data-name="Layer 1" xmlns="http://www.w3.org/2000/svg" viewBox="0 0 442.08 107">
  <defs>
    <style>
      .cls-1 {
        fill: #fff;
      }
    </style>
  </defs>
  <path class="cls-1" d="M98.55,106.99H14c-7.07-2.43-12.2-7.73-14-15v-57c2.28-9.42,10.01-15.07,20-15.08h73.01c10.23,0,19.28,6.24,19.94,17.19.2,3.36.14,7.17.13,10.75l-31.26-.17c-1.92-2.82-4.7-4.74-7.72-4.74l-37.15.05c-4.91,0-8.69,4.14-8.7,8.94l-.04,22.15c0,4.35,3.16,9.31,8.03,9.34l36.74.17c6.11.03,10.68-4.3,9.93-10.32l-31.51.02-.09-17.28,61.72-.05.21,30.02c.07,9.99-4.75,18.19-14.7,21Z"/>
  <path class="cls-1" d="M220.53,106.99h-83.53c-8.53-2.36-14.75-9.78-14.73-19.21l.1-49.5c.02-8.71,7.43-18.1,16.67-18.11l78.95-.07c10.08,0,17.26,9.31,17.27,18.8l.08,48.09c.02,9.72-5.31,17.36-14.8,20ZM197.46,84.55c3.96-.31,8.5-3.54,8.49-7.51l-.02-26.15c0-2.92-4.23-6.22-6.86-6.9h-40.12c-3.92.68-7.31,4.25-7.31,8.37l-.04,23.31c0,4.56,3.84,8.82,8.59,8.83l37.26.05Z"/>
  <polygon class="cls-1" points="441.99 107 342.67 106.99 342.66 83.26 396.59 43.92 342.54 43.65 342.6 20 442.08 20 442.02 43.77 388.44 83.09 442.08 83.29 441.99 107"/>
  <polygon class="cls-1" points="335.99 107 244.67 106.99 244.5 20.02 275.17 20 275.15 83.68 336.34 83.7 335.99 107"/>
  <polygon class="cls-1" points="173.4 0 173.06 14.01 133.25 14 133.3 0 173.4 0"/>
  <polygon class="cls-1" points="225.55 0 225.07 14 185.29 14 185.38 0 225.55 0"/>
</svg>