<?xml version="1.0" encoding="UTF-8"?>
<svg id="Layer_2" xmlns="http://www.w3.org/2000/svg" version="1.1" viewBox="0 0 779.5 143.6">
  <!-- Generator: Adobe Illustrator 30.5.1, SVG Export Plug-In . SVG Version: 2.1.4 Build 3)  -->
  <defs>
    <style>
      .st0 {
        fill: #fff;
      }
    </style>
  </defs>
  <path id="layer1" class="st0" d="M563.7,143.6c-3.7-1.6-13.9-6.8-15.2-17.2l-18.9,17.2h-44.1c-4.4-1.2-12.3-5.2-14.8-17.8l-18.2,17.7h-38.5c0,0-16.5-53.1-16.5-53.1l-20.4,53.2h-36.9l6.9-17.8c-14.8,12.3-19.4,16.6-20.7,17.9h-31.3c-11.8-5.5-12.6-18-12.6-18-15.3,12.5-20,16.6-21.4,18h-27.4c-10.1-4.7-13.2-17.4-13.2-17.4-15.3,11.2-24.2,17.4-24.2,17.4h-49.7l29.5-75.8h-26.3l-28.4,75.8h-36.6l33.6-93.6h-24l-35.8,93.6H21.8L63.9,32.3H0V.2h112l-6.3,18.8h60.7l-6.9,19.4h61.2l-28.1,77h28.6l22.3-55.4s8.6-21.6,28.6-21.6h77.2l-27.4,77.5h28.6L394.6.2h34.8l-26.9,76.4,40.1-38.2h41.8l-50.4,49.3,7.4,28.8,31-.3,30.9-78.3h34.8l-28,78.1h40.1l20-52.6h-23.5l9.2-25.5h22.3L593.6.2h36l-13.7,36.5h21.2l-8.6,26h-22.9l-18.9,52.6h40.1l18.9-50.4s8-26,31.5-26.6h75.5l-28,77h54.9v28.2h-73.2s-17.2-2.2-20-17.7l-17.8,17.7h-25.1s-16.1-2.2-18.3-17.7l-18.3,17.7h-43.1,0ZM686.6,116.5l19.4-48.7h-24.6l-19.4,48.7s24.6,0,24.6,0ZM284,116.5l19.4-48.7h-24.6l-19.5,48.7h24.6M506.1,28.8l10.3-28.8h34.9l-10.3,28.8h-34.9"/>
</svg>